<?xml version="1.0" encoding="UTF-8"?>
<svg version="1.1" xmlns="http://www.w3.org/2000/svg" width="500" height="500">
<path d="M0 0 C165 0 330 0 500 0 C500 165 500 330 500 500 C335 500 170 500 0 500 C0 335 0 170 0 0 Z " fill="#2B0D22" transform="translate(0,0)"/>
<path d="M0 0 C1.151586 -0.0033284 2.303172 -0.0066568 3.48965454 -0.01008606 C5.93222659 -0.01514167 8.37480553 -0.01749481 10.81738281 -0.01733398 C14.46431756 -0.01948712 18.11093257 -0.03756388 21.7578125 -0.05664062 C37.32379814 -0.09392236 52.67381887 0.65861817 68.1640625 2.16796875 C69.18062927 2.26346008 70.19719604 2.35895142 71.24456787 2.45733643 C104.67060918 5.62555832 139.90946396 20.38925361 167.1640625 40.16796875 C167.1640625 40.49796875 167.1640625 40.82796875 167.1640625 41.16796875 C141.9190625 41.66296875 141.9190625 41.66296875 116.1640625 42.16796875 C122.3928125 42.60109375 128.6215625 43.03421875 135.0390625 43.48046875 C185.54328689 47.12647966 233.9083506 55.56553413 281.1640625 74.16796875 C277.02108937 72.0840437 272.8767612 70.00284644 268.73120117 67.92407227 C267.32360666 67.21777384 265.91637329 66.51075517 264.50952148 65.80297852 C262.4773658 64.78077755 260.44388869 63.76124711 258.41015625 62.7421875 C257.79007187 62.42956467 257.16998749 62.11694183 256.53111267 61.79484558 C252.46442722 59.76124693 248.35530859 57.92391986 244.1640625 56.16796875 C244.1640625 55.83796875 244.1640625 55.50796875 244.1640625 55.16796875 C263.03325638 54.11316909 284.11017322 56.97743694 299.1640625 69.16796875 C306.7689208 75.98254365 306.7689208 75.98254365 308.1640625 80.16796875 C303.91411718 80.72037335 299.66403108 81.27167894 295.41381836 81.82202148 C293.97172309 82.00890312 292.52966488 82.19607101 291.08764648 82.38354492 C287.64273191 82.83132411 284.19746331 83.27565423 280.75097656 83.71118164 C278.73590003 83.96779804 276.72147958 84.23027027 274.70996094 84.51342773 C267.97829097 85.40241073 261.20872478 85.35404464 254.4296875 85.35327148 C252.3279095 85.35542888 250.2266836 85.37355725 248.125 85.39257812 C239.90638395 85.42712449 231.87174784 84.93657471 223.70762634 84.0014801 C217.38207508 83.27813546 211.0551946 82.72293983 204.70703125 82.23828125 C203.71481064 82.16202011 202.72259003 82.08575897 201.70030212 82.00718689 C199.64365389 81.84964944 197.58696671 81.69261972 195.53024292 81.53607178 C178.69781988 80.24874104 161.88752619 78.84227448 145.1015625 77.04296875 C144.352164 76.96274475 143.6027655 76.88252075 142.83065796 76.79986572 C136.42132942 76.10947024 130.0148642 75.40224828 123.61767578 74.60644531 C122.86265274 74.51372345 122.1076297 74.42100159 121.32972717 74.32546997 C119.90229697 74.14918696 118.47534859 73.96893095 117.04905701 73.78366089 C112.37620328 73.20768633 107.86106593 73.09400019 103.1640625 73.16796875 C108.01215834 75.36449079 112.86459214 77.55104743 117.72094727 79.72924805 C119.36567035 80.46851606 121.00926639 81.21029767 122.65161133 81.95483398 C143.02274344 91.48484123 143.02274344 91.48484123 164.9765625 95.12402344 C166.66983351 95.15804004 168.36258297 95.21858195 170.0546875 95.29003906 C173.38257505 95.42970584 176.70932438 95.521878 180.0390625 95.60546875 C181.12171387 95.65227783 182.20436523 95.69908691 183.31982422 95.74731445 C188.58988131 95.81718418 192.13964232 95.79626873 196.234375 92.25390625 C197.21145164 91.22574877 198.18806301 90.19714879 199.1640625 89.16796875 C206.9814373 84.44497147 214.61864457 85.13789589 223.41015625 85.62890625 C232.52371501 86.0693089 241.57717903 86.19785622 250.69921875 86.01953125 C252.95117106 85.98432255 255.20312418 85.94916634 257.45507812 85.9140625 C260.87658443 85.85808187 264.29641027 85.79100479 267.71704102 85.69482422 C271.10721518 85.60397564 274.49559829 85.55795049 277.88671875 85.51953125 C279.41329857 85.46063217 279.41329857 85.46063217 280.97071838 85.40054321 C287.62843312 85.37448617 290.95738595 86.77299895 295.71287537 91.46420288 C297.1640625 93.16796875 297.1640625 93.16796875 298.1640625 95.16796875 C303.1140625 95.16796875 308.0640625 95.16796875 313.1640625 95.16796875 C313.1640625 97.80796875 313.1640625 100.44796875 313.1640625 103.16796875 C290.78848805 104.97512502 268.43796558 105.36909924 246.00077438 105.35644531 C243.87763973 105.3554806 241.75451256 105.35643188 239.63137817 105.35766602 C225.49181804 105.36086168 211.37934509 105.23707016 197.2552948 104.5164032 C187.55799472 104.0391495 177.87038187 104.07781718 168.1640625 104.16796875 C175.66689251 104.86637884 183.17019636 105.55952535 190.67382812 106.24926758 C193.21853253 106.48377514 195.7631322 106.71942238 198.30761719 106.95629883 C231.96715852 110.08788086 263.07652536 110.64859794 296.57128906 105.48925781 C302.51102358 104.59330128 308.15650099 103.94628751 314.1640625 104.16796875 C315.01087383 109.24883671 315.25444349 114.01625252 315.1640625 119.16796875 C309.10096092 120.8942685 303.45169306 121.5611667 297.1640625 121.79296875 C296.29394531 121.83164063 295.42382812 121.8703125 294.52734375 121.91015625 C292.40655764 122.00337762 290.28534065 122.08671011 288.1640625 122.16796875 C288.1640625 122.82796875 288.1640625 123.48796875 288.1640625 124.16796875 C289.4015625 124.00296875 290.6390625 123.83796875 291.9140625 123.66796875 C297.66413193 123.01684446 303.3851239 123.07996461 309.1640625 123.16796875 C309.1640625 124.48796875 309.1640625 125.80796875 309.1640625 127.16796875 C308.47183594 127.2659375 307.77960938 127.36390625 307.06640625 127.46484375 C294.86133652 129.3301772 283.10437227 132.84168164 271.28515625 136.3359375 C256.99375212 140.14578616 243.76918575 137.56404831 229.612854 134.74780273 C207.58657048 130.41667667 186.55591102 129.13736499 164.1640625 130.16796875 C165.36337402 130.20386108 165.36337402 130.20386108 166.58691406 130.24047852 C193.03076612 131.14713551 219.0891888 134.54397732 245.03808594 139.74389648 C261.40029545 143.00769505 280.88533245 137.35039071 296.36791992 132.07666016 C299.64513398 131.01162997 302.41229926 130.90199076 305.8515625 130.91796875 C306.96917969 130.9128125 308.08679688 130.90765625 309.23828125 130.90234375 C312.1640625 131.16796875 312.1640625 131.16796875 315.1640625 133.16796875 C315.98451238 137.26217451 315.53797062 141.15621737 314.1015625 145.04296875 C309.62482291 149.9529412 303.7670521 150.47913592 297.48803711 151.0402832 C288.97288129 151.63619908 288.97288129 151.63619908 281.4375 155.1484375 C280.23071041 156.68131704 279.07539285 158.2564105 277.98046875 159.87109375 C274.55526522 164.20231886 269.31287504 166.41737249 264.1640625 168.16796875 C260.796875 168.3203125 260.796875 168.3203125 258.1640625 168.16796875 C258.1640625 168.82796875 258.1640625 169.48796875 258.1640625 170.16796875 C259.14475708 170.13533936 259.14475708 170.13533936 260.14526367 170.10205078 C268.88313026 169.94618974 277.40072517 170.77120006 286.06567383 171.76708984 C288.48878417 172.04436728 290.91312194 172.3079773 293.33789062 172.5703125 C294.90113235 172.74528545 296.46428694 172.92103908 298.02734375 173.09765625 C298.74102615 173.1748288 299.45470856 173.25200134 300.1900177 173.33151245 C304.71403105 173.86213694 308.83398993 174.81731688 313.1640625 176.16796875 C313.1640625 176.82796875 313.1640625 177.48796875 313.1640625 178.16796875 C307.243052 179.02345302 301.50642761 179.31640676 295.52856445 179.31323242 C294.12566949 179.31819811 294.12566949 179.31819811 292.69443321 179.32326412 C289.59705805 179.33263775 286.4997321 179.33458285 283.40234375 179.3359375 C281.20107488 179.3398851 278.99980636 179.34402956 276.79853821 179.34835815 C270.90839146 179.3577026 265.01827333 179.35874402 259.12812042 179.35664749 C255.48008634 179.35546989 251.83205516 179.35599904 248.184021 179.35665894 C218.04144494 179.35548766 187.91815335 179.17188449 157.7890625 178.23046875 C157.08147923 178.20865414 156.37389595 178.18683952 155.64487076 178.16436386 C151.01808062 178.02084869 146.39177617 177.866161 141.765625 177.703125 C140.66309891 177.66452362 139.56057281 177.62592224 138.42463684 177.58615112 C131.96287096 177.33770958 125.53213158 176.90829142 119.08666992 176.38963318 C115.59163067 176.1245528 112.1170341 175.98 108.61328125 175.88671875 C107.33775391 175.84933594 106.06222656 175.81195313 104.74804688 175.7734375 C102.13087362 175.70259672 99.51368581 175.63229204 96.89648438 175.5625 C95.62740234 175.52511719 94.35832031 175.48773438 93.05078125 175.44921875 C91.91858154 175.41892578 90.78638184 175.38863281 89.61987305 175.35742188 C86.55630566 175.18947215 83.56774211 174.83799717 80.52836609 174.43554688 C75.29173352 173.84289527 70.02032683 173.60305933 64.76171875 173.27734375 C48.77667188 172.24728706 32.81878159 170.95811926 16.85794067 169.60850143 C14.55314264 169.41388009 12.24826479 169.22023135 9.94335938 169.02688599 C-19.50383224 166.55666709 -48.94572476 164.0249201 -78.38253403 161.43395615 C-86.68808038 160.70293508 -94.99428305 159.98076416 -103.30198479 159.27463245 C-109.26024765 158.76816927 -115.217863 158.25449328 -121.17529297 157.73831177 C-123.63484659 157.52668935 -126.09464366 157.31787554 -128.5546875 157.11203003 C-131.91084675 156.83083219 -135.26599919 156.53968246 -138.62109375 156.24609375 C-139.60606339 156.16611649 -140.59103302 156.08613922 -141.60585022 156.0037384 C-142.95736427 155.88248848 -142.95736427 155.88248848 -144.33618164 155.75878906 C-145.11401505 155.69250305 -145.89184845 155.62621704 -146.69325256 155.55792236 C-148.8359375 155.16796875 -148.8359375 155.16796875 -152.8359375 153.16796875 C-147.8859375 152.83796875 -142.9359375 152.50796875 -137.8359375 152.16796875 C-138.8878125 151.21921875 -139.9396875 150.27046875 -141.0234375 149.29296875 C-146.69603076 143.58599614 -149.48738596 137.33280898 -150.8984375 129.48046875 C-151.80663474 125.62883708 -152.52671059 124.41196149 -155.6875 121.91796875 C-158.68575903 120.17659114 -161.6801646 118.6015214 -164.8359375 117.16796875 C-163.8359375 115.16796875 -162.8359375 113.16796875 -161.8359375 111.16796875 C-161.43265386 104.35904034 -161.59570048 97.69182229 -162.8359375 90.98046875 C-164.60605866 81.10913614 -163.7892102 73.02275632 -161.5234375 63.29296875 C-161.20427368 61.91830444 -161.20427368 61.91830444 -160.87866211 60.51586914 C-159.5187661 55.01707117 -158.18496055 50.55444775 -154.12109375 46.42578125 C-150.96333406 44.68766395 -147.80053529 44.3898964 -144.2734375 44.04296875 C-138.98314033 43.48452734 -138.98314033 43.48452734 -133.8359375 42.16796875 C-132.35951253 42.07182113 -130.87919314 42.02987666 -129.3996582 42.02270508 C-128.05729851 42.0131353 -128.05729851 42.0131353 -126.68782043 42.00337219 C-125.72220688 42.00225937 -124.75659332 42.00114655 -123.76171875 42 C-122.76391891 41.9966716 -121.76611908 41.9933432 -120.73808289 41.98991394 C-118.62397726 41.9848483 -116.50986364 41.9825055 -114.39575195 41.98266602 C-111.17841174 41.98048903 -107.96141973 41.96235566 -104.74414062 41.94335938 C-102.68750117 41.94042339 -100.63086009 41.93843997 -98.57421875 41.9375 C-97.14098015 41.92672173 -97.14098015 41.92672173 -95.67878723 41.91572571 C-94.76811996 41.91880234 -93.8574527 41.92187897 -92.91918945 41.92504883 C-92.1288179 41.92362381 -91.33844635 41.92219879 -90.52412415 41.92073059 C-84.61811821 42.46391833 -79.89919004 44.03491131 -74.69606876 46.79149342 C-61.83275566 53.25471644 -47.57599775 52.12957497 -33.55798268 52.01379228 C-29.73020183 51.99032199 -25.90260814 52.00882774 -22.07481384 52.02287292 C-14.81293355 52.0436969 -7.55155495 52.0310209 -0.28970855 52.00440091 C12.62476067 51.95832157 25.53926033 51.97448374 38.45376974 51.99545115 C42.95413686 52.00151968 47.45422838 51.99474814 51.95455962 51.97649378 C67.17156377 51.91945683 82.31341416 52.18846966 97.50610352 53.1003418 C98.21033255 53.14254463 98.91456157 53.18474746 99.64013088 53.22822917 C133.75358474 55.31837001 165.82697421 62.42824395 198.1640625 73.16796875 C184.41655057 65.62390073 170.13498795 60.7511014 155.1640625 56.16796875 C154.37999023 55.92530273 153.59591797 55.68263672 152.78808594 55.43261719 C134.34561854 49.85657649 115.09129471 48.91839033 95.95703125 49.11328125 C94.34857491 49.12464835 92.74011529 49.13556091 91.13165283 49.14602661 C84.52412687 49.19492284 77.91812559 49.24919525 71.31225586 49.41113281 C67.20419608 49.50965055 63.09977247 49.54359044 58.99059486 49.53673935 C57.45113215 49.5459535 55.91159882 49.57826721 54.37318993 49.63595963 C47.74883162 49.87707299 41.81786434 49.9969208 36.6131897 45.33660889 C33.96531274 42.63292309 31.608006 39.75113835 29.34205055 36.72330856 C27.75019047 34.62151869 26.00009844 32.67956376 24.2265625 30.73046875 C22.35304687 28.58354534 20.59394156 26.42835239 18.8515625 24.16796875 C11.81543133 15.75220402 2.80093617 10.52521123 -7.8359375 8.16796875 C-31.81032301 6.11245438 -54.63825876 12.23341954 -75.8359375 23.16796875 C-74.82917969 22.72066406 -73.82242188 22.27335937 -72.78515625 21.8125 C-62.03579513 17.14983042 -51.25832013 13.7588757 -39.8359375 11.16796875 C-39.03720215 10.98032959 -38.2384668 10.79269043 -37.41552734 10.59936523 C-31.34317057 9.26139841 -25.5453451 8.83253888 -19.3359375 8.85546875 C-18.02689453 8.83129883 -18.02689453 8.83129883 -16.69140625 8.80664062 C-3.49750563 8.79686737 7.02237783 13.85492151 16.3515625 23.04296875 C37.1640625 44.79559725 37.1640625 44.79559725 37.1640625 48.16796875 C25.16725126 48.33093031 13.17070795 48.45492693 1.17301083 48.53065395 C-4.39946451 48.56701924 -9.97117666 48.61626104 -15.54321289 48.69604492 C-20.93144043 48.77270463 -26.31893896 48.81408428 -31.70767021 48.83210945 C-33.75242002 48.8449368 -35.79713477 48.86998303 -37.8415699 48.90807915 C-51.20053431 49.14686687 -60.10675263 47.66460877 -71.8359375 41.16796875 C-75.57699311 39.95796434 -79.32330431 39.94759027 -83.2265625 39.8515625 C-83.93117615 39.8307814 -84.63578979 39.81000031 -85.36175537 39.78858948 C-87.60305431 39.72343038 -89.84446614 39.66436627 -92.0859375 39.60546875 C-93.60938647 39.56225149 -95.13282421 39.51863618 -96.65625 39.47460938 C-100.38269341 39.36778384 -104.10926244 39.26642236 -107.8359375 39.16796875 C-104.81436156 36.0082293 -101.95985724 33.38903351 -98.203125 31.15234375 C-97.32479004 30.62793701 -96.44645508 30.10353027 -95.54150391 29.56323242 C-94.60741699 29.02029541 -93.67333008 28.4773584 -92.7109375 27.91796875 C-91.24213135 27.06199097 -91.24213135 27.06199097 -89.74365234 26.1887207 C-68.33460793 13.8730631 -45.71382767 4.26341558 -20.99389648 1.42993164 C-19.26437668 1.21997862 -17.54280556 0.94498242 -15.82592773 0.64892578 C-10.57507355 -0.1028982 -5.29395011 0.00541224 0 0 Z " fill="#FCFBFC" transform="translate(174.8359375,54.83203125)"/>
<path d="M0 0 C1.30904297 -0.02416992 1.30904297 -0.02416992 2.64453125 -0.04882812 C15.83843187 -0.05860138 26.35831533 4.99945276 35.6875 14.1875 C56.5 35.9401285 56.5 35.9401285 56.5 39.3125 C44.50318876 39.47546156 32.50664545 39.59945818 20.50894833 39.6751852 C14.93647299 39.71155049 9.36476084 39.76079229 3.79272461 39.84057617 C-1.59550293 39.91723588 -6.98300146 39.95861553 -12.37173271 39.9766407 C-14.41648252 39.98946805 -16.46119727 40.01451428 -18.5056324 40.0526104 C-31.86459681 40.29139812 -40.77081513 38.80914002 -52.5 32.3125 C-56.24105561 31.10249559 -59.98736681 31.09212152 -63.890625 30.99609375 C-64.59523865 30.97531265 -65.29985229 30.95453156 -66.02581787 30.93312073 C-68.26711681 30.86796163 -70.50852864 30.80889752 -72.75 30.75 C-74.27344897 30.70678274 -75.79688671 30.66316743 -77.3203125 30.61914062 C-81.04675591 30.51231509 -84.77332494 30.41095361 -88.5 30.3125 C-84.9733764 26.74548558 -81.72175087 23.96336683 -77.5 21.3125 C-76.84 21.6425 -76.18 21.9725 -75.5 22.3125 C-75.83 23.3025 -76.16 24.2925 -76.5 25.3125 C-75.58863281 24.76722656 -74.67726563 24.22195312 -73.73828125 23.66015625 C-56.91922681 13.78920719 -39.56999425 6.48732773 -20.5 2.3125 C-19.70706543 2.12776123 -18.91413086 1.94302246 -18.09716797 1.75268555 C-12.01707835 0.41168204 -6.21775744 -0.0229607 0 0 Z " fill="#FDFDFD" transform="translate(155.5,63.6875)"/>
<path d="M0 0 C7.36291375 3.57483887 11.54047641 9.65406213 14.67578125 17.03125 C16.9560554 23.86126545 17.8189935 29.83617448 17.75 37 C17.76160156 38.20462891 17.76160156 38.20462891 17.7734375 39.43359375 C17.73633646 50.87926334 13.95758379 62.17337554 6 70.625 C0.85233101 75.23435067 -4.36471512 75.98626327 -11.11328125 75.8046875 C-17.22917545 75.02393505 -21.12631176 70.19504227 -24.89453125 65.703125 C-33.11775285 54.41870412 -33.64256788 39.93028643 -32.5 26.5 C-30.79989513 17.25631603 -26.480334 8.50348392 -19.0703125 2.546875 C-12.41487882 -1.78219129 -7.53962322 -2.82259082 0 0 Z " fill="#32152A" transform="translate(265.5,142.5)"/>
<path d="M0 0 C2.69623121 -0.06643963 5.39146691 -0.10779005 8.08837891 -0.13549805 C9.02166016 -0.16450195 9.95494141 -0.19350586 10.91650391 -0.22338867 C16.6750767 -0.27640669 20.25609815 0.13714908 24.71337891 4.17700195 C27.19430242 7.80793411 27.01962718 11.58617891 27.01416016 15.8293457 C27.01844528 16.56649307 27.02273041 17.30364044 27.02714539 18.06312561 C27.03287637 19.61889623 27.03339803 21.17469364 27.02905273 22.73046875 C27.0258941 25.10308828 27.0493607 27.47445845 27.07470703 29.84692383 C27.0769804 31.36189622 27.07768335 32.87687195 27.07666016 34.3918457 C27.0858699 35.09719955 27.09507965 35.80255341 27.10456848 36.52928162 C27.06350375 40.92938253 26.36981297 43.65762146 23.71337891 47.17700195 C18.67314585 51.58720588 13.83510503 51.4169861 7.46337891 51.48950195 C6.62935547 51.51850586 5.79533203 51.54750977 4.93603516 51.57739258 C-1.00619659 51.6380276 -4.43772715 50.66292959 -9.28662109 47.17700195 C-11.79635241 43.41240498 -11.6275019 40.36762939 -11.65771484 36.0012207 C-11.66674332 35.19844193 -11.67577179 34.39566315 -11.68507385 33.56855774 C-11.69957747 31.86979907 -11.70846338 30.17098453 -11.7121582 28.47216797 C-11.7240322 25.88387791 -11.7731926 23.29799031 -11.82373047 20.71020508 C-11.83319784 19.05722189 -11.84043138 17.40422409 -11.84521484 15.7512207 C-11.86474716 14.98226974 -11.88427948 14.21331879 -11.90440369 13.42106628 C-11.8713488 9.4473867 -11.47611877 6.89246157 -9.00170898 3.70361328 C-5.69295801 0.6245499 -4.29512583 0.33247557 0 0 Z " fill="#D5D4D5" transform="translate(185.28662109375,253.822998046875)"/>
<path d="M0 0 C6.35362235 3.08529809 8.6097735 8.80726492 11.0546875 15.09765625 C15.16099794 27.7050474 13.13697013 40.64143965 7.625 52.5 C5.5780568 56.27291602 3.90056589 58.96106783 0 61 C-4.60024693 62.28875192 -7.83516254 62.51521657 -12.25 60.5625 C-19.473369 53.83163343 -21.73530369 46.52144246 -22.25390625 36.8828125 C-22.68667933 24.60731583 -21.41377763 13.45172324 -13.5625 3.48828125 C-9.70058733 -0.19019057 -5.18442341 -1.04853507 0 0 Z " fill="#36192D" transform="translate(47,139)"/>
<path d="M0 0 C0.84030762 -0.01023193 1.68061523 -0.02046387 2.54638672 -0.03100586 C16.06713506 0.16076829 26.34266224 6.2176979 35.875 15.4375 C37.6045621 17.30740842 39.26800413 19.21967867 40.91796875 21.16015625 C44.00996194 24.75822417 47.23754467 28.23183781 50.4453125 31.7265625 C52.875 34.4375 52.875 34.4375 55.09161377 37.56159973 C57.20093594 40.08309425 57.72067684 40.40231227 61.11737061 41.17680359 C62.34546448 41.1721962 63.57355835 41.16758881 64.83886719 41.1628418 C65.86237274 41.17155807 65.86237274 41.17155807 66.90655518 41.18045044 C69.16252753 41.19324761 71.41606904 41.16449334 73.671875 41.13671875 C75.26394612 41.14036063 76.85601285 41.14707511 78.44805908 41.1566925 C82.65389497 41.17578232 86.8589074 41.16175999 91.06469727 41.13818359 C98.51707756 41.09980956 105.96947849 41.10712472 113.421875 41.13671875 C114.22476267 41.13949451 115.02765034 41.14227028 115.85486794 41.14513016 C145.53202351 41.29266236 195.28991502 44.85241502 217.875 67.4375 C212.04311887 66.2615731 206.54576471 64.71349209 200.92602539 62.7722168 C173.9559675 53.54718352 146.39111536 49.32408281 118.02730656 47.57370663 C116.03822824 47.44782974 114.04993807 47.30966058 112.06175232 47.1703949 C98.50402711 46.28369517 84.94871135 46.34022556 71.36951977 46.38399738 C66.01030105 46.40113053 60.65123249 46.4033806 55.29199219 46.39686584 C54.50514164 46.39594576 53.71829109 46.39502568 52.90759659 46.39407772 C50.49048086 46.39111069 48.07336545 46.38794772 45.65625 46.38476562 C35.74854221 46.37201903 25.84123222 46.37003255 15.93359375 46.41333008 C8.65307748 46.44503575 1.37315863 46.44795044 -5.90737534 46.41857058 C-9.73836683 46.40417886 -13.56815996 46.40335137 -17.39904785 46.43797112 C-33.69432769 46.57674529 -47.68350872 46.11908045 -62.38062859 38.25367069 C-66.81541291 36.17868771 -71.80933325 36.28135556 -76.6171875 36.12109375 C-78.41542969 36.05825195 -78.41542969 36.05825195 -80.25 35.99414062 C-81.4875 35.95482422 -82.725 35.91550781 -84 35.875 C-85.26070312 35.83181641 -86.52140625 35.78863281 -87.8203125 35.74414062 C-90.92177423 35.63840898 -94.02331145 35.53631429 -97.125 35.4375 C-97.125 35.1075 -97.125 34.7775 -97.125 34.4375 C-96.34125 34.31375 -95.5575 34.19 -94.75 34.0625 C-91.98442178 33.64632007 -91.98442178 33.64632007 -90.125 31.4375 C-85.70290351 31.14513592 -81.27870644 31.34943716 -76.8515625 31.49414062 C-74.66138449 31.56138293 -72.47215285 31.59814632 -70.28125 31.6328125 C-61.32646735 31.85044216 -54.24074954 33.24307247 -46.24949741 37.41712761 C-40.51548142 40.22616982 -35.90406562 41.0004637 -29.56616211 40.89160156 C-28.65776581 40.89218567 -27.74936951 40.89276978 -26.81344604 40.89337158 C-23.8426753 40.89060853 -20.87293689 40.85960145 -17.90234375 40.828125 C-15.83012947 40.82065627 -13.75790809 40.81496633 -11.6856842 40.81097412 C-6.25550528 40.7957676 -0.82576044 40.75652886 4.60424805 40.7121582 C10.15472544 40.67109776 15.70527359 40.65294015 21.25585938 40.6328125 C32.12909603 40.59002967 43.00201179 40.52183899 53.875 40.4375 C52.45997118 38.69875579 51.04361284 36.96109354 49.62670898 35.22387695 C48.83811996 34.25609818 48.04953094 33.2883194 47.23704529 32.29121399 C43.92286236 28.28717129 40.47478566 24.4319283 36.9375 20.625 C35.9794043 19.55862305 35.9794043 19.55862305 35.00195312 18.47070312 C26.60512934 9.44015679 16.4184889 3.73951069 3.97265625 3.00390625 C2.29442987 2.98076514 0.61576825 2.98012556 -1.0625 3 C-2.41396118 3.00918457 -2.41396118 3.00918457 -3.79272461 3.01855469 C-13.19318071 3.23218274 -22.07405933 4.98551388 -31.125 7.4375 C-32.15238281 7.71464844 -33.17976563 7.99179688 -34.23828125 8.27734375 C-42.10232034 10.69105872 -49.60002377 14.15978657 -57.09326172 17.52807617 C-57.97256348 17.91713135 -58.85186523 18.30618652 -59.7578125 18.70703125 C-60.55074707 19.06385986 -61.34368164 19.42068848 -62.16064453 19.78833008 C-64.125 20.4375 -64.125 20.4375 -66.125 19.4375 C-45.26315529 8.35914109 -23.89408912 0.21946595 0 0 Z " fill="#35192D" transform="translate(157.125,61.5625)"/>
<path d="M0 0 C10 0 10 0 12.078125 1.80078125 C12.65820312 3.04408203 12.65820312 3.04408203 13.25 4.3125 C13.92675781 5.66408203 13.92675781 5.66408203 14.6171875 7.04296875 C15.07351562 8.01878906 15.52984375 8.99460937 16 10 C17.11481221 12.0472473 18.23955626 14.08912297 19.375 16.125 C20.25214516 17.74884309 21.12795196 19.37341394 22 21 C25.22081715 17.12251139 27.37485896 12.69823779 29.6875 8.25 C30.31108398 7.06083984 30.31108398 7.06083984 30.94726562 5.84765625 C31.96799486 3.90005793 32.9854562 1.95082551 34 0 C35.45792884 -0.05399736 36.91642712 -0.09279177 38.375 -0.125 C39.18710938 -0.14820313 39.99921875 -0.17140625 40.8359375 -0.1953125 C43 0 43 0 45 2 C45.24050903 4.02481079 45.24050903 4.02481079 45.22705078 6.54150391 C45.22689972 7.48232819 45.22674866 8.42315247 45.22659302 9.39248657 C45.21627045 10.41023163 45.20594788 11.42797668 45.1953125 12.4765625 C45.1924826 13.51694672 45.18965271 14.55733093 45.18673706 15.62924194 C45.17551704 18.96127694 45.15040915 22.29304586 45.125 25.625 C45.11497256 27.88020446 45.1058463 30.13541312 45.09765625 32.390625 C45.07557174 37.92718629 45.04102946 43.46354799 45 49 C41.37 49 37.74 49 34 49 C33.67 39.76 33.34 30.52 33 21 C30.36 25.62 27.72 30.24 25 35 C22.69 35 20.38 35 18 35 C15.69 30.38 13.38 25.76 11 21 C10.67 30.24 10.34 39.48 10 49 C6.7 49 3.4 49 0 49 C0 32.83 0 16.66 0 0 Z " fill="#D6D6D6" transform="translate(120,255)"/>
<path d="M0 0 C1.89837895 0.03136144 3.79635581 0.10990047 5.69140625 0.2265625 C6.71854736 0.26185059 7.74568848 0.29713867 8.80395508 0.33349609 C11.95827223 0.4597365 15.10369884 0.64851786 18.25390625 0.8515625 C19.12724609 0.89603516 20.00058594 0.94050781 20.90039062 0.98632812 C43.06622743 2.14929685 65.43862651 6.42048184 87.09423828 11.16625977 C107.61603137 15.61724672 128.3587177 17.28802598 149.25390625 18.8515625 C149.25390625 19.1815625 149.25390625 19.5115625 149.25390625 19.8515625 C138.00035087 19.98391656 126.82446944 19.61907627 115.58676529 19.06103134 C88.72103304 17.74495627 61.84950292 17.23620198 34.95776367 16.78710938 C28.86759777 16.68407635 22.77755675 16.5741064 16.6875 16.46484375 C4.87641023 16.25389995 -6.93479093 16.05019492 -18.74609375 15.8515625 C-16.83422545 13.83222231 -15.31693211 12.59966328 -12.87109375 11.1640625 C-9.74056115 8.84746837 -9.25942696 8.0582621 -7.703125 4.74609375 C-5.53293508 1.18211108 -4.17153063 0.27583346 0 0 Z " fill="#311429" transform="translate(88.74609375,192.1484375)"/>
<path d="M0 0 C3.3 0 6.6 0 10 0 C10 16.5 10 33 10 50 C1 50 1 50 -1.76586914 47.4296875 C-2.55423908 46.26579925 -3.30948486 45.07897843 -4.03515625 43.875 C-4.44414658 43.25351074 -4.8531369 42.63202148 -5.27452087 41.99169922 C-6.56753492 40.01225728 -7.81463355 38.00813841 -9.0625 36 C-9.9339631 34.64917553 -10.808285 33.30019081 -11.68554688 31.953125 C-13.83022324 28.6579931 -15.9104695 25.3330456 -18 22 C-18.33 31.24 -18.66 40.48 -19 50 C-22.3 50 -25.6 50 -29 50 C-29 33.83 -29 17.66 -29 1 C-20 1 -20 1 -17.72265625 2.87890625 C-17.17480469 3.76449219 -16.62695312 4.65007812 -16.0625 5.5625 C-15.423125 6.5525 -14.78375 7.5425 -14.125 8.5625 C-13.78984375 9.1090625 -13.4546875 9.655625 -13.109375 10.21875 C-11.88876138 12.17860849 -10.60838264 14.08912221 -9.3125 16 C-2.40047543 26.19904914 -2.40047543 26.19904914 -1 29 C-0.67 19.43 -0.34 9.86 0 0 Z " fill="#D1D0D1" transform="translate(249,254)"/>
<path d="M0 0 C3.96 0 7.92 0 12 0 C12 6.27 12 12.54 12 19 C18.59335953 18.84329586 18.59335953 18.84329586 20.42138672 16.34179688 C20.67162598 15.64119141 20.92186523 14.94058594 21.1796875 14.21875 C21.6128125 13.07986328 21.6128125 13.07986328 22.0546875 11.91796875 C22.46074219 10.72107422 22.46074219 10.72107422 22.875 9.5 C23.45452539 7.92663941 24.03519434 6.35369942 24.6171875 4.78125 C24.86065918 4.08064453 25.10413086 3.38003906 25.35498047 2.65820312 C26 1 26 1 27 0 C28.85287502 -0.07226502 30.70833878 -0.0838122 32.5625 -0.0625 C33.57441406 -0.05347656 34.58632813 -0.04445312 35.62890625 -0.03515625 C36.41136719 -0.02355469 37.19382812 -0.01195312 38 0 C35.91147495 8.11593505 32.64670147 15.47056459 29 23 C28.34 23 27.68 23 27 23 C27 23.66 27 24.32 27 25 C27.99 25.33 28.98 25.66 30 26 C31.25854492 28.00952148 31.25854492 28.00952148 32.48046875 30.62109375 C33.14272461 32.02391602 33.14272461 32.02391602 33.81835938 33.45507812 C34.27017578 34.43927734 34.72199219 35.42347656 35.1875 36.4375 C35.65091797 37.41783203 36.11433594 38.39816406 36.59179688 39.40820312 C40 46.70145665 40 46.70145665 40 49 C36.04 49 32.08 49 28 49 C27.43152344 47.64003906 26.86304688 46.28007812 26.27734375 44.87890625 C25.4988279 43.10614125 24.71880078 41.33403938 23.9375 39.5625 C23.56689453 38.66466797 23.19628906 37.76683594 22.81445312 36.84179688 C22.43095703 35.98779297 22.04746094 35.13378906 21.65234375 34.25390625 C21.31195068 33.46314697 20.97155762 32.6723877 20.62084961 31.85766602 C18.63195946 29.17009854 18.63195946 29.17009854 12 29 C12 35.6 12 42.2 12 49 C8.04 49 4.08 49 0 49 C0 32.83 0 16.66 0 0 Z " fill="#D4D3D3" transform="translate(306,255)"/>
<path d="M0 0 C21.00868803 1.07140077 42.00263584 2.2920956 62.99182129 3.69592285 C73.11309167 4.3725314 83.2332848 5.03356936 93.36328125 5.56640625 C94.17839676 5.60957977 94.99351227 5.6527533 95.83332825 5.69723511 C99.59953959 5.89531019 103.36590624 6.08631798 107.13305664 6.265625 C116.49632915 6.73321304 125.71909276 7.71995478 135 9 C133.50260417 11.734375 132.00520833 14.46875 130.5078125 17.203125 C129.2955686 19.45174321 128.13527655 21.71231065 127 24 C112.7934939 22.11882414 98.73932069 19.73691309 84.67129517 17.01318359 C69.22826289 14.02331486 53.77630796 11.10044071 38.27734375 8.4140625 C37.09601868 8.20889008 35.9146936 8.00371765 34.6975708 7.79232788 C29.00714688 6.80624615 23.3150687 5.83112205 17.62060547 4.86865234 C15.57645961 4.516821 13.53234951 4.16478188 11.48828125 3.8125 C10.55128891 3.65770172 9.61429657 3.50290344 8.64891052 3.34341431 C7.37117516 3.12121719 7.37117516 3.12121719 6.06762695 2.89453125 C5.32591751 2.76925049 4.58420807 2.64396973 3.82002258 2.51489258 C2 2 2 2 0 0 Z " fill="#35182C" transform="translate(103,122)"/>
<path d="M0 0 C9.9 0 19.8 0 30 0 C30 3.63 30 7.26 30 11 C24.06 11 18.12 11 12 11 C12 13.97 12 16.94 12 20 C17.28 20 22.56 20 28 20 C28 23.3 28 26.6 28 30 C22.39 30 16.78 30 11 30 C11 33.3 11 36.6 11 40 C17.27 40 23.54 40 30 40 C30 43.3 30 46.6 30 50 C20.1 50 10.2 50 0 50 C0 33.5 0 17 0 0 Z " fill="#D3D2D3" transform="translate(268,254)"/>
<path d="M0 0 C1.60004883 0.01450195 1.60004883 0.01450195 3.23242188 0.02929688 C4.88661133 0.06700195 4.88661133 0.06700195 6.57421875 0.10546875 C7.69634766 0.11900391 8.81847656 0.13253906 9.97460938 0.14648438 C12.73718558 0.18175131 15.49951405 0.23555572 18.26171875 0.29296875 C18.26171875 3.92296875 18.26171875 7.55296875 18.26171875 11.29296875 C11.33171875 11.29296875 4.40171875 11.29296875 -2.73828125 11.29296875 C-2.73828125 14.26296875 -2.73828125 17.23296875 -2.73828125 20.29296875 C-1.86945313 20.25816406 -1.000625 20.22335937 -0.10546875 20.1875 C11.67170714 19.91085493 11.67170714 19.91085493 16.26171875 23.29296875 C19.25042582 26.28167582 19.6904925 28.85791245 19.76953125 33.0390625 C19.76695312 33.74160156 19.764375 34.44414062 19.76171875 35.16796875 C19.80425781 36.21017578 19.80425781 36.21017578 19.84765625 37.2734375 C19.86235806 41.17676733 19.31314181 43.72633314 16.91796875 46.73828125 C13.20417826 50.31007387 10.67205614 50.41683297 5.71875 50.390625 C4.64560547 50.38740234 3.57246094 50.38417969 2.46679688 50.38085938 C1.34724609 50.37248047 0.22769531 50.36410156 -0.92578125 50.35546875 C-2.05693359 50.35095703 -3.18808594 50.34644531 -4.35351562 50.34179688 C-7.14849052 50.33000373 -9.94335945 50.31354525 -12.73828125 50.29296875 C-12.73828125 46.99296875 -12.73828125 43.69296875 -12.73828125 40.29296875 C-6.13828125 39.96296875 0.46171875 39.63296875 7.26171875 39.29296875 C7.26171875 36.65296875 7.26171875 34.01296875 7.26171875 31.29296875 C6.32070313 31.27878906 5.3796875 31.26460938 4.41015625 31.25 C-7.03391936 30.81166584 -7.03391936 30.81166584 -10.48828125 28.04296875 C-14.66325607 22.94022175 -15.18452858 18.38458653 -15.0546875 11.953125 C-14.60369233 8.16142485 -13.31172022 6.07506493 -10.73828125 3.29296875 C-7.02836151 0.63464861 -4.54196474 -0.07286574 0 0 Z " fill="#D4D3D3" transform="translate(362.73828125,253.70703125)"/>
<path d="M0 0 C3.42201307 -0.08099058 6.84428291 -0.13183581 10.26681519 -0.1864624 C11.45291382 -0.22448975 12.63901245 -0.26251709 13.86105347 -0.30169678 C21.53110786 -0.38063785 21.53110786 -0.38063785 24.66915894 2.54400635 C25.39812378 3.85304932 25.39812378 3.85304932 26.14181519 5.1885376 C29.75745841 8.31885958 33.58736263 10.67038675 38.14181519 12.1885376 C38.14181519 12.5185376 38.14181519 12.8485376 38.14181519 13.1885376 C36.43357385 13.21589378 34.72520114 13.23509266 33.01681519 13.2510376 C32.06548706 13.26263916 31.11415894 13.27424072 30.13400269 13.28619385 C27.14181519 13.1885376 27.14181519 13.1885376 24.38009644 12.7119751 C20.07437159 12.01599545 15.80861679 11.90493997 11.45431519 11.7510376 C3.14596482 11.41686948 -5.13147758 10.90292062 -13.42068481 10.2510376 C-30.54778291 8.91314188 -47.7025128 8.06628935 -64.85818481 7.1885376 C-63.85818481 5.1885376 -62.85818481 3.1885376 -61.85818481 1.1885376 C-47.29429977 0.88937687 -32.73023366 0.611583 -18.1652832 0.36929321 C-12.10949945 0.267402 -6.0547424 0.15159565 0 0 Z " fill="#35192D" transform="translate(370.8581848144531,208.81146240234375)"/>
<path d="M0 0 C3.06900633 2.02275417 4.71481787 3.75329991 6.75 6.8125 C7.64843597 12.46486487 7.34233942 18.00430597 5.5625 23.4375 C2.78914581 27.07155032 0.79315455 28.53176121 -3.80859375 29.1640625 C-8.40669259 29.40114222 -12.10040221 29.52486375 -15.8125 26.5625 C-20.17585991 21.63973497 -20.69607985 18.04925402 -20.56640625 11.57421875 C-19.9787489 6.44491322 -17.94349658 3.27078872 -14 -0.125 C-8.99270194 -2.05963789 -4.9159742 -1.79622134 0 0 Z " fill="#D1CFD0" transform="translate(286.25,324.1875)"/>
<path d="M0 0 C0.33 0 0.66 0 1 0 C2.10228696 4.40914783 2.07654536 8.48382401 2 13 C1.67 13 1.34 13 1 13 C1 10.69 1 8.38 1 6 C-0.3003418 6.176521 -1.60068359 6.35304199 -2.94042969 6.53491211 C-7.81550446 7.19587212 -12.6911178 7.852785 -17.56689453 8.50854492 C-19.66762699 8.79163949 -21.76821651 9.07579698 -23.86865234 9.36108398 C-46.78327353 12.47193722 -68.5095151 13.46916118 -91.5625 11.75 C-92.45410828 11.68541595 -93.34571655 11.62083191 -94.26434326 11.55429077 C-113.88615807 10.128369 -133.44530065 8.14488867 -153 6 C-153 5.67 -153 5.34 -153 5 C-148.64584902 4.96992031 -144.2917258 4.95285495 -139.9375 4.9375 C-138.74705078 4.92912109 -137.55660156 4.92074219 -136.33007812 4.91210938 C-128.71914079 4.89223748 -121.15600544 5.11551339 -113.5546875 5.49609375 C-99.86726713 6.15755394 -86.18211552 6.15247935 -72.48266602 6.13037109 C-68.89164101 6.12464704 -65.30068975 6.12807339 -61.70966721 6.13382244 C-48.29326783 6.15193627 -34.90989026 6.12692917 -21.51782227 5.22265625 C-16.96399685 4.93442745 -12.43581041 4.88350133 -7.875 4.9375 C-7.09769531 4.94201172 -6.32039062 4.94652344 -5.51953125 4.95117188 C-3.67965056 4.96252916 -1.83981164 4.98042754 0 5 C0 3.35 0 1.7 0 0 Z " fill="#3B2033" transform="translate(488,153)"/>
<path d="M0 0 C4.62 0 9.24 0 14 0 C14 9.9 14 19.8 14 30 C9.05 30 4.1 30 -1 30 C-1.02291394 25.88822073 -1.04283951 21.77660342 -1.05493164 17.66479492 C-1.0599708 16.26504772 -1.06680216 14.8653058 -1.07543945 13.46557617 C-1.0875232 11.45754223 -1.09269807 9.44947043 -1.09765625 7.44140625 C-1.10289307 6.23170166 -1.10812988 5.02199707 -1.11352539 3.77563477 C-1 1 -1 1 0 0 Z " fill="#311429" transform="translate(186,264)"/>
<path d="M0 0 C2.05078125 0.03255208 4.1015625 0.06510417 6.15234375 0.09765625 C7.63470268 4.17983781 9.11267716 8.26359323 10.58984375 12.34765625 C11.22116211 14.08595703 11.22116211 14.08595703 11.86523438 15.859375 C12.26806641 16.97441406 12.67089844 18.08945312 13.0859375 19.23828125 C13.64365845 20.77790527 13.64365845 20.77790527 14.21264648 22.34863281 C14.97947983 24.59195406 15.62813538 26.78824057 16.15234375 29.09765625 C13.84234375 29.09765625 11.53234375 29.09765625 9.15234375 29.09765625 C8.49234375 27.11765625 7.83234375 25.13765625 7.15234375 23.09765625 C3.52234375 22.76765625 -0.10765625 22.43765625 -3.84765625 22.09765625 C-4.50765625 24.40765625 -5.16765625 26.71765625 -5.84765625 29.09765625 C-7.82765625 29.09765625 -9.80765625 29.09765625 -11.84765625 29.09765625 C-10.16398373 22.25958277 -8.05988103 15.61062609 -5.72265625 8.97265625 C-5.32409424 7.83485718 -5.32409424 7.83485718 -4.91748047 6.67407227 C-2.58745152 0.13675748 -2.58745152 0.13675748 0 0 Z " fill="#D0CFD0" transform="translate(191.84765625,323.90234375)"/>
<path d="M0 0 C1.98 0 3.96 0 6 0 C6.02505615 0.69150146 6.0501123 1.38300293 6.07592773 2.09545898 C6.19152161 5.20967866 6.31441242 8.32356789 6.4375 11.4375 C6.47681641 12.52611328 6.51613281 13.61472656 6.55664062 14.73632812 C6.61948242 16.28803711 6.61948242 16.28803711 6.68359375 17.87109375 C6.72025146 18.82943115 6.75690918 19.78776855 6.79467773 20.77514648 C6.75834424 22.97138925 6.75834424 22.97138925 8 24 C10.97 24 13.94 24 17 24 C17.33 16.08 17.66 8.16 18 0 C19.98 0 21.96 0 24 0 C24.11674705 3.70806596 24.18743274 7.4156554 24.25 11.125 C24.28351563 12.17171875 24.31703125 13.2184375 24.3515625 14.296875 C24.43028848 20.51622775 24.26027483 24.31369769 20 29 C15.82919693 31.08540153 10.54271136 30.45427114 6 30 C2.92634214 28.19196596 1.56980268 27.13960536 0 24 C-0.08471364 22.18658158 -0.10721083 20.37005839 -0.09765625 18.5546875 C-0.09443359 17.47832031 -0.09121094 16.40195312 -0.08789062 15.29296875 C-0.07951172 14.16503906 -0.07113281 13.03710938 -0.0625 11.875 C-0.05798828 10.73933594 -0.05347656 9.60367187 -0.04882812 8.43359375 C-0.03701615 5.62234362 -0.02054507 2.8111977 0 0 Z " fill="#CDCBCC" transform="translate(212,323)"/>
<path d="M0 0 C31.40388471 -0.89336149 61.1610387 -0.73001449 92.02520752 5.71226501 C103.78135059 8.15858069 114.61567094 9.46906852 126.375 6.0625 C131.63558372 4.56789424 136.57866268 3.57098342 142 3 C142.99 4.485 142.99 4.485 144 6 C140.17465527 7.03229398 136.33886629 8.01929998 132.5 9 C131.44167969 9.28617188 130.38335937 9.57234375 129.29296875 9.8671875 C113.88340037 13.74264781 99.61692854 11.82980508 84.25 9.125 C82.64213155 8.85165911 81.03405836 8.57951981 79.42578125 8.30859375 C76.45082264 7.8056821 73.47722289 7.29598426 70.50488281 6.77783203 C69.7932196 6.65590485 69.0815564 6.53397766 68.34832764 6.40835571 C66.64515936 6.11218814 64.94391532 5.80488569 63.24395752 5.49081421 C55.83444852 4.16685734 48.52880591 3.51964156 41.015625 3.1484375 C39.83401794 3.08467926 38.65241089 3.02092102 37.43499756 2.95523071 C33.7069677 2.75550711 29.97853202 2.56509338 26.25 2.375 C23.70309219 2.24020183 21.15621674 2.10479085 18.609375 1.96875 C12.40660608 1.63875408 6.20347781 1.31637448 0 1 C0 0.67 0 0.34 0 0 Z " fill="#3E2336" transform="translate(319,184)"/>
<path d="M0 0 C3.5 1.5 3.5 1.5 6 3 C5.34 4.65 4.68 6.3 4 8 C3.29875 7.67 2.5975 7.34 1.875 7 C-1.26003116 5.90955438 -3.70563182 5.84677357 -7 6 C-7.33 7.65 -7.66 9.3 -8 11 C-7.33613281 11.09796875 -6.67226563 11.1959375 -5.98828125 11.296875 C3.9012266 12.97159458 3.9012266 12.97159458 7 17 C7.69717529 20.15471819 7.68333277 22.84392916 7 26 C5.25 28.5625 5.25 28.5625 2 30 C-3.64188926 30.74030315 -8.32049934 31.03353887 -13.25 28 C-13.8275 27.34 -14.405 26.68 -15 26 C-14.34 24.68 -13.68 23.36 -13 22 C-10 22 -10 22 -7 24 C-4.66800612 24.07905064 -2.33167378 24.08798769 0 24 C0.33 22.35 0.66 20.7 1 19 C0.33613281 18.91363281 -0.32773437 18.82726562 -1.01171875 18.73828125 C-5.41188003 18.0381096 -8.42790633 17.40046557 -12.125 14.8125 C-14.56689778 11.14965333 -14.84811005 9.31765118 -14 5 C-9.88623251 0.1663232 -6.25979841 -1.19234255 0 0 Z " fill="#D0CECF" transform="translate(312,323)"/>
<path d="M0 0 C0.84030762 -0.01023193 1.68061523 -0.02046387 2.54638672 -0.03100586 C16.06713506 0.16076829 26.34266224 6.2176979 35.875 15.4375 C37.60413935 17.30695137 39.26666071 19.21830935 40.9140625 21.16015625 C44.02448075 24.77245474 47.29491674 28.23810349 50.54296875 31.7265625 C52.94757605 34.52186814 54.89550849 37.33402136 56.875 40.4375 C56.38 41.4275 56.38 41.4275 55.875 42.4375 C25.515 42.4375 -4.845 42.4375 -36.125 42.4375 C-36.125 42.1075 -36.125 41.7775 -36.125 41.4375 C-6.425 41.1075 23.275 40.7775 53.875 40.4375 C48.33598303 33.66759037 42.8769372 27.0171927 36.9375 20.625 C35.9794043 19.55862305 35.9794043 19.55862305 35.00195312 18.47070312 C26.60512934 9.44015679 16.4184889 3.73951069 3.97265625 3.00390625 C2.29442987 2.98076514 0.61576825 2.98012556 -1.0625 3 C-1.96347412 3.00612305 -2.86444824 3.01224609 -3.79272461 3.01855469 C-13.19318071 3.23218274 -22.07405933 4.98551388 -31.125 7.4375 C-32.15238281 7.71464844 -33.17976563 7.99179688 -34.23828125 8.27734375 C-42.10232034 10.69105872 -49.60002377 14.15978657 -57.09326172 17.52807617 C-57.97256348 17.91713135 -58.85186523 18.30618652 -59.7578125 18.70703125 C-60.55074707 19.06385986 -61.34368164 19.42068848 -62.16064453 19.78833008 C-64.125 20.4375 -64.125 20.4375 -66.125 19.4375 C-45.26315529 8.35914109 -23.89408912 0.21946595 0 0 Z " fill="#4F3748" transform="translate(157.125,61.5625)"/>
<path d="M0 0 C3.45162111 1.96268652 5.58807155 3.81315949 8.1875 6.8125 C8.65929687 7.34359375 9.13109375 7.8746875 9.6171875 8.421875 C15.94024811 16.08817646 19.96701043 26.19415486 22.1875 35.8125 C21.73535156 38.01977539 21.73535156 38.01977539 21.1875 39.8125 C20.67960937 38.7503125 20.17171875 37.688125 19.6484375 36.59375 C14.38248064 25.59675986 14.38248064 25.59675986 7.1875 15.8125 C6.63320313 15.17828125 6.07890625 14.5440625 5.5078125 13.890625 C0.168599 8.14800426 -4.76874597 5.7039213 -12.6875 5.3125 C-18.86045162 5.45929109 -22.80176217 7.37656549 -27.8125 10.8125 C-29.3284375 11.7096875 -29.3284375 11.7096875 -30.875 12.625 C-31.514375 13.016875 -32.15375 13.40875 -32.8125 13.8125 C-30.0032461 7.07029065 -22.37892221 2.45649393 -15.9140625 -0.53125 C-10.44736385 -2.23832318 -5.38737539 -1.67803496 0 0 Z " fill="#371B2E" transform="translate(55.8125,114.1875)"/>
<path d="M0 0 C1.32 0 2.64 0 4 0 C5.36907416 2.57637588 6.72028455 5.15968104 8.0625 7.75 C8.45244141 8.47960937 8.84238281 9.20921875 9.24414062 9.9609375 C9.60830078 10.66992188 9.97246094 11.37890625 10.34765625 12.109375 C10.68804932 12.75874023 11.02844238 13.40810547 11.37915039 14.07714844 C12.14774619 16.45758908 11.89883677 17.68905713 11 20 C6.81951361 22.91705051 1.88298589 22.66027797 -3 22 C-5.40823788 20.90965608 -6.95504966 19.72206345 -9 18 C-7.45614871 13.85967154 -5.48971062 10.06446947 -3.375 6.1875 C-3.05015625 5.59001953 -2.7253125 4.99253906 -2.390625 4.37695312 C-1.59620849 2.91662865 -0.79844624 1.45812509 0 0 Z " fill="#F8F7F7" transform="translate(256,192)"/>
<path d="M0 0 C3.90084789 0.59742715 6.87847386 1.74918302 10.3125 3.6875 C11.63701172 4.40486328 11.63701172 4.40486328 12.98828125 5.13671875 C15 7 15 7 15.57421875 9.71484375 C14.80582246 14.11090685 12.89588922 17.16245093 10.5 20.875 C10.07074219 21.56335938 9.64148438 22.25171875 9.19921875 22.9609375 C8.1447243 24.64812861 7.07396075 26.32513264 6 28 C1.46243723 24.21234256 0.91640175 18.58750508 0 13 C-0.22159292 8.65123889 -0.18939984 4.3491814 0 0 Z " fill="#F7F6F7" transform="translate(236,174)"/>
<path d="M0 0 C4.4158975 1.30841407 4.4158975 1.30841407 6.375 4 C6.80859375 6.77734375 6.80859375 6.77734375 6.8125 9.9375 C6.83183594 10.97777344 6.85117187 12.01804687 6.87109375 13.08984375 C6.26028953 16.67290788 5.24533877 17.8306174 2.375 20 C-1.125 20.5625 -1.125 20.5625 -4.625 20 C-7.46498954 17.81539266 -8.4261725 16.14419597 -9.0390625 12.6171875 C-9.29518753 8.10129879 -9.05913557 5.67093679 -6.5625 1.8125 C-3.625 0 -3.625 0 0 0 Z " fill="#301327" transform="translate(280.625,328)"/>
<path d="M0 0 C0.47674584 9.07141398 0.1706612 16.78044873 -4 25 C-4.66 25.66 -5.32 26.32 -6 27 C-15.19941331 13.60279616 -15.19941331 13.60279616 -15 7 C-12.68868934 5.83092416 -10.37604377 4.66464108 -8.0625 3.5 C-7.40314453 3.16613281 -6.74378906 2.83226562 -6.06445312 2.48828125 C-1.11328125 0 -1.11328125 0 0 0 Z " fill="#FAF9FA" transform="translate(280,175)"/>
<path d="M0 0 C4.3798869 1.2001385 6.85868053 2.36032267 9.75 5.875 C10.32234375 6.55304688 10.8946875 7.23109375 11.484375 7.9296875 C13.66262857 10.90513696 14.98321115 12.78560665 15.03515625 16.54296875 C13.47331395 20.25013405 11.07002843 20.79600755 7.4375 22.3125 C6.23996094 22.82425781 5.04242188 23.33601563 3.80859375 23.86328125 C2.88175781 24.23839844 1.95492188 24.61351562 1 25 C0 24 0 24 -0.11352539 21.68334961 C-0.10828857 20.68311768 -0.10305176 19.68288574 -0.09765625 18.65234375 C-0.09443359 17.57275391 -0.09121094 16.49316406 -0.08789062 15.38085938 C-0.07951172 14.24455078 -0.07113281 13.10824219 -0.0625 11.9375 C-0.05798828 10.79732422 -0.05347656 9.65714844 -0.04882812 8.48242188 C-0.03699747 5.65489649 -0.0205141 2.8274736 0 0 Z " fill="#FCFBFC" transform="translate(262,147)"/>
<path d="M0 0 C7.26 0 14.52 0 22 0 C22 1.65 22 3.3 22 5 C19.36 5 16.72 5 14 5 C14 12.92 14 20.84 14 29 C12.02 29 10.04 29 8 29 C8 20.75 8 12.5 8 4 C5.36 4 2.72 4 0 4 C0 2.68 0 1.36 0 0 Z " fill="#CFCECF" transform="translate(241,324)"/>
<path d="M0 0 C0 7.92 0 15.84 0 24 C-0.99 24.33 -1.98 24.66 -3 25 C-5.91796875 23.34765625 -5.91796875 23.34765625 -9.1875 21.0625 C-9.74630859 20.67642578 -10.30511719 20.29035156 -10.88085938 19.89257812 C-12.26031198 18.93757247 -13.63102056 17.96995907 -15 17 C-14.10638637 10.95496665 -10.99076045 6.52631295 -6.33984375 2.59765625 C-2.57740214 0 -2.57740214 0 0 0 Z " fill="#F6F4F5" transform="translate(255,147)"/>
<path d="M0 0 C0.99 0.33 1.98 0.66 3 1 C3.88082622 3.71318044 4.57876229 6.28883517 5.1875 9.0625 C5.36474609 9.82111328 5.54199219 10.57972656 5.72460938 11.36132812 C6.16136967 13.23821697 6.58219156 15.1188016 7 17 C4 19 4 19 0.5625 18.875 C-3.2689711 17.93393692 -4.78056308 17.23667884 -7 14 C-6.57650112 10.43490944 -4.80033715 7.7622473 -2.9375 4.75 C-2.38964844 3.85796875 -1.84179688 2.9659375 -1.27734375 2.046875 C-0.64505859 1.03367188 -0.64505859 1.03367188 0 0 Z " fill="#F3F1F3" transform="translate(40,179)"/>
<path d="M0 0 C3.84788585 1.5676572 6.37632897 3.79329096 9 7 C9.63258202 11.99189721 8.48986669 14.42410473 5.5 18.375 C4.52546875 19.68597656 4.52546875 19.68597656 3.53125 21.0234375 C3.0259375 21.67570312 2.520625 22.32796875 2 23 C-0.68453033 20.31546967 -0.97742618 18.54641921 -1.1328125 14.78515625 C-1.13023438 13.55667969 -1.12765625 12.32820312 -1.125 11.0625 C-1.12757812 9.83660156 -1.13015625 8.61070312 -1.1328125 7.34765625 C-1.02667535 4.67237569 -0.79917654 2.53072572 0 0 Z " fill="#F0EEEF" transform="translate(28,161)"/>
<path d="M0 0 C13.00877824 -0.47366315 25.45177656 0.9918263 38.3125 2.8125 C40.24661707 3.0771071 42.18086181 3.34078279 44.11523438 3.60351562 C56.10232335 5.24501485 68.05701689 7.064919 80 9 C80 9.33 80 9.66 80 10 C73.66354687 10.14347212 67.59076311 9.59157897 61.30859375 8.79296875 C60.28685562 8.6669075 59.26511749 8.54084625 58.2124176 8.41096497 C54.9535296 8.00767949 51.69553322 7.59762746 48.4375 7.1875 C46.30799584 6.92339933 44.17843888 6.65972407 42.04882812 6.39648438 C28.02478992 4.65722806 14.01055757 2.84444653 0 1 C0 0.67 0 0.34 0 0 Z " fill="#6A5564" transform="translate(114,173)"/>
<path d="M0 0 C5.40664607 3.79926481 7.5343737 7.37556083 8.6875 13.875 C8.790625 14.90625 8.89375 15.9375 9 17 C2.5 20 2.5 20 -2 20 C-1.85834107 17.60385425 -1.71181159 15.20817103 -1.5625 12.8125 C-1.52318359 12.13896484 -1.48386719 11.46542969 -1.44335938 10.77148438 C-1.21072435 7.10300898 -0.82792989 3.58305794 0 0 Z " fill="#F6F5F6" transform="translate(48,144)"/>
<path d="M0 0 C-0.33 5.94 -0.66 11.88 -1 18 C-1.99 18.33 -2.98 18.66 -4 19 C-5.22989015 17.62312297 -6.43339578 16.22264167 -7.625 14.8125 C-8.29789063 14.03519531 -8.97078125 13.25789062 -9.6640625 12.45703125 C-11 10 -11 10 -10.39453125 7.375 C-8.00251315 3.30119886 -4.96313885 0 0 0 Z " fill="#F7F6F7" transform="translate(43,143)"/>
<path d="M0 0 C1.6953125 1.515625 1.6953125 1.515625 3 3 C-19.0922641 4.88880426 -41.9077359 4.88880426 -64 3 C-64 2.67 -64 2.34 -64 2 C-53.34528519 1.13291331 -42.80903498 0.89755035 -32.125 1 C-21.51737123 1.10020702 -10.45261145 -0.83620892 0 0 Z " fill="#472D3F" transform="translate(459,138)"/>
<path d="M0 0 C0.43623812 6.68898454 -0.99068978 12.98137957 -4 19 C-4.66 19 -5.32 19 -6 19 C-6.67679658 17.274773 -7.34102 15.54461061 -8 13.8125 C-8.556875 12.36810547 -8.556875 12.36810547 -9.125 10.89453125 C-9.97636772 8.07817642 -10.17072647 5.91835561 -10 3 C-3.375 0 -3.375 0 0 0 Z " fill="#F8F7F8" transform="translate(57,170)"/>
<path d="M0 0 C0.66 0.33 1.32 0.66 2 1 C1 4 1 4 -1.8359375 5.5 C-3.00382812 5.995 -4.17171875 6.49 -5.375 7 C-9.25858661 8.6533229 -12.14288487 9.91208726 -15 13 C-16.65769393 14.12841402 -18.34810627 15.20974931 -20.0625 16.25 C-20.94035156 16.79140625 -21.81820312 17.3328125 -22.72265625 17.890625 C-23.47417969 18.25671875 -24.22570312 18.6228125 -25 19 C-25.66 18.67 -26.32 18.34 -27 18 C-24.56889393 12.41746014 -20.33238 10.5646495 -15.1875 7.875 C-14.39279297 7.44574219 -13.59808594 7.01648438 -12.77929688 6.57421875 C-10.52878216 5.3642646 -8.26578865 4.18101957 -6 3 C-4.86175781 2.38382812 -3.72351563 1.76765625 -2.55078125 1.1328125 C-1.70902344 0.75898437 -0.86726563 0.38515625 0 0 Z " fill="#E3DFE2" transform="translate(104,71)"/>
<path d="M0 0 C0 0.33 0 0.66 0 1 C-0.94359375 1.17015625 -1.8871875 1.3403125 -2.859375 1.515625 C-16.37296034 4.06638207 -28.42468478 8.45144091 -40.96728516 14.09033203 C-41.84690918 14.47946777 -42.7265332 14.86860352 -43.6328125 15.26953125 C-44.42574707 15.62635986 -45.21868164 15.98318848 -46.03564453 16.35083008 C-48 17 -48 17 -50 16 C-41.52183805 11.49780366 -33.01960123 7.43524803 -24 4.125 C-23.22422607 3.83939209 -22.44845215 3.55378418 -21.64916992 3.25952148 C-14.27608283 0.61977426 -7.8325807 -1.63178765 0 0 Z " fill="#5D4656" transform="translate(141,65)"/>
<path d="M0 0 C16.80410046 -0.24011135 33.2958369 0.09095279 50 2 C50 2.33 50 2.66 50 3 C33.20919691 3.26567726 16.70772244 2.71314525 0 1 C0 0.67 0 0.34 0 0 Z " fill="#685261" transform="translate(330,177)"/>
<path d="M0 0 C0.66 0.66 1.32 1.32 2 2 C-3.94 3.32 -9.88 4.64 -16 6 C-16.33 5.34 -16.66 4.68 -17 4 C-16 2 -16 2 -13.41796875 1.11328125 C-12.35191406 0.84902344 -11.28585937 0.58476562 -10.1875 0.3125 C-9.12917969 0.04050781 -8.07085937 -0.23148438 -6.98046875 -0.51171875 C-4.1336937 -0.97809736 -2.63784671 -1.07292192 0 0 Z " fill="#482E40" transform="translate(461,188)"/>
<path d="M0 0 C2 1 2 1 3.125 3.8125 C4 7 4 7 4 11 C1.69 11 -0.62 11 -3 11 C-2.69078116 9.54096742 -2.37751201 8.08279278 -2.0625 6.625 C-1.88847656 5.81289063 -1.71445313 5.00078125 -1.53515625 4.1640625 C-1 2 -1 2 0 0 Z " fill="#3C2134" transform="translate(193,330)"/>
<path d="M0 0 C1.02577148 0.07831055 1.02577148 0.07831055 2.07226562 0.15820312 C3.73621169 0.28619898 5.3994473 0.42337719 7.0625 0.5625 C7.0625 2.5425 7.0625 4.5225 7.0625 6.5625 C4.4225 6.5625 1.7825 6.5625 -0.9375 6.5625 C-0.9375 6.2325 -0.9375 5.9025 -0.9375 5.5625 C1.3725 5.5625 3.6825 5.5625 6.0625 5.5625 C6.0625 4.2425 6.0625 2.9225 6.0625 1.5625 C-4.3325 2.0575 -4.3325 2.0575 -14.9375 2.5625 C-14.9375 1.9025 -14.9375 1.2425 -14.9375 0.5625 C-9.79660079 -0.33999856 -5.24023626 -0.41736395 0 0 Z " fill="#8B7B86" transform="translate(477.9375,176.4375)"/>
<path d="M0 0 C5.68502535 1.64566523 10.76681636 4.29032784 16 7 C11.82356045 8.39214652 9.16562207 6.70664266 5.3125 5.0625 C4.61060547 4.77181641 3.90871094 4.48113281 3.18554688 4.18164062 C1.45349225 3.46289687 -0.27373781 2.73254669 -2 2 C-1.34 1.34 -0.68 0.68 0 0 Z " fill="#584051" transform="translate(442,122)"/>
<path d="M0 0 C0.66 0.33 1.32 0.66 2 1 C0.72648692 4.82053924 -0.62637525 5.23021375 -4.0625 7.1875 C-4.98160156 7.71730469 -5.90070312 8.24710938 -6.84765625 8.79296875 C-7.55792969 9.19128906 -8.26820312 9.58960937 -9 10 C-7.61811547 6.78956118 -6.07578097 4.95063635 -3.375 2.75 C-2.74335938 2.22921875 -2.11171875 1.7084375 -1.4609375 1.171875 C-0.73777344 0.59179688 -0.73777344 0.59179688 0 0 Z " fill="#5B4454" transform="translate(32,118)"/>
<path d="M0 0 C0.99 0.33 1.98 0.66 3 1 C4.3125 4.375 4.3125 4.375 5 8 C4.01 9.485 4.01 9.485 3 11 C2.01 7.37 1.02 3.74 0 0 Z " fill="#462C3E" transform="translate(53,148)"/>
<path d="M0 0 C3.66226912 0.39238598 6.77780124 2.31566883 10 4 C6.52128379 5.15957207 5.65780355 4.77456651 2.3125 3.5625 C1.50425781 3.27503906 0.69601562 2.98757812 -0.13671875 2.69140625 C-0.75160156 2.46324219 -1.36648438 2.23507813 -2 2 C-1.34 1.34 -0.68 0.68 0 0 Z " fill="#4E3546" transform="translate(365,124)"/>
<path d="M0 0 C0.99 0.33 1.98 0.66 3 1 C5.14255793 0.61067144 5.14255793 0.61067144 7 0 C4.63404067 2.61500768 2.13950774 4.38999603 -1 6 C-1.66 5.67 -2.32 5.34 -3 5 C-2.01 3.35 -1.02 1.7 0 0 Z " fill="#BDB4BA" transform="translate(80,84)"/>
<path d="M0 0 C0.33 0 0.66 0 1 0 C1.66 3.3 2.32 6.6 3 10 C2.01 10 1.02 10 0 10 C-0.74926071 6.33694766 -1.2380014 3.57644848 0 0 Z " fill="#DDD8DB" transform="translate(25,180)"/>
<path d="M0 0 C0.66 0.33 1.32 0.66 2 1 C-0.52788007 3.79872437 -2.20411134 5.45773019 -6 6 C-5 3 -5 3 -2.5625 1.25 C-1.716875 0.8375 -0.87125 0.425 0 0 Z " fill="#F7F6F6" transform="translate(87,80)"/>
<path d="M0 0 C2.86724686 0.57344937 3.8614515 0.8614515 6 3 C3.69 3.33 1.38 3.66 -1 4 C-0.67 2.68 -0.34 1.36 0 0 Z " fill="#4E3446" transform="translate(457,187)"/>
<path d="M0 0 C3.65316671 1.24976756 4.78065836 1.67098753 7 5 C3.09161134 5 1.88405893 3.49432124 -1 1 C-0.67 0.67 -0.34 0.34 0 0 Z " fill="#4A3042" transform="translate(179,67)"/>
</svg>
