<?xml version="1.0" encoding="UTF-8"?>
<svg version="1.1" xmlns="http://www.w3.org/2000/svg" width="500" height="500">
<path d="M0 0 C165 0 330 0 500 0 C500 165 500 330 500 500 C335 500 170 500 0 500 C0 335 0 170 0 0 Z " fill="#FEFEFE" transform="translate(0,0)"/>
<path d="M0 0 C1.151586 -0.0033284 2.303172 -0.0066568 3.48965454 -0.01008606 C5.93222659 -0.01514167 8.37480553 -0.01749481 10.81738281 -0.01733398 C14.46431756 -0.01948712 18.11093257 -0.03756388 21.7578125 -0.05664062 C37.32379814 -0.09392236 52.67381887 0.65861817 68.1640625 2.16796875 C69.18062927 2.26346008 70.19719604 2.35895142 71.24456787 2.45733643 C104.67060918 5.62555832 139.90946396 20.38925361 167.1640625 40.16796875 C167.1640625 40.49796875 167.1640625 40.82796875 167.1640625 41.16796875 C152.3140625 41.49796875 137.4640625 41.82796875 122.1640625 42.16796875 C125.4846875 42.43609375 128.8053125 42.70421875 132.2265625 42.98046875 C135.64216131 43.26639261 139.05719354 43.55828028 142.47216797 43.8515625 C144.9345035 44.06259192 147.39707175 44.27092315 149.85986328 44.4765625 C169.14856654 46.10595628 188.13641257 48.54735427 207.1640625 52.16796875 C208.29763184 52.38291992 209.43120117 52.59787109 210.59912109 52.81933594 C234.7982869 57.52756392 258.24286999 65.14493285 281.1640625 74.16796875 C277.02108937 72.0840437 272.8767612 70.00284644 268.73120117 67.92407227 C267.32360666 67.21777384 265.91637329 66.51075517 264.50952148 65.80297852 C262.4773658 64.78077755 260.44388869 63.76124711 258.41015625 62.7421875 C257.79007187 62.42956467 257.16998749 62.11694183 256.53111267 61.79484558 C252.46442722 59.76124693 248.35530859 57.92391986 244.1640625 56.16796875 C244.1640625 55.83796875 244.1640625 55.50796875 244.1640625 55.16796875 C263.03325638 54.11316909 284.11017322 56.97743694 299.1640625 69.16796875 C306.7689208 75.98254365 306.7689208 75.98254365 308.1640625 80.16796875 C289.65185311 83.29463784 271.40421025 85.68017312 252.6015625 85.60546875 C251.86152985 85.60514648 251.12149719 85.60482422 250.35903931 85.60449219 C241.39980116 85.57654953 232.59117973 84.99822631 223.69085693 83.98884583 C217.37090534 83.274421 211.0485424 82.72351226 204.70703125 82.23828125 C203.21920639 82.12385933 203.21920639 82.12385933 201.70132446 82.00712585 C199.64506766 81.84961149 197.58877212 81.69260218 195.53244019 81.53607178 C177.31354587 80.14366729 159.14169093 78.52670169 140.97875977 76.53662109 C128.39137853 75.16060096 115.79562585 74.06475507 103.1640625 73.16796875 C108.08740385 75.37830747 113.01301352 77.58348631 117.94067383 79.78417969 C119.61218528 80.531508 121.28309904 81.28017481 122.95336914 82.03027344 C142.58035976 90.8421519 158.69225021 95.18377759 180.2890625 95.66796875 C181.35592285 95.71083008 182.4227832 95.75369141 183.52197266 95.79785156 C188.73233667 95.84234937 192.17643768 95.74229104 196.21875 92.25 C196.72647949 91.71866455 197.23420898 91.1873291 197.75732422 90.63989258 C201.64595066 86.57107466 206.76837186 85.55112286 212.1640625 85.16796875 C215.91951061 85.2012352 219.66094242 85.41951077 223.41015625 85.62890625 C232.52371501 86.0693089 241.57717903 86.19785622 250.69921875 86.01953125 C252.95117106 85.98432255 255.20312418 85.94916634 257.45507812 85.9140625 C260.87658443 85.85808187 264.29641027 85.79100479 267.71704102 85.69482422 C271.10721518 85.60397564 274.49559829 85.55795049 277.88671875 85.51953125 C279.41329857 85.46063217 279.41329857 85.46063217 280.97071838 85.40054321 C287.62843312 85.37448617 290.95738595 86.77299895 295.71287537 91.46420288 C297.1640625 93.16796875 297.1640625 93.16796875 298.1640625 95.16796875 C303.1140625 95.16796875 308.0640625 95.16796875 313.1640625 95.16796875 C313.1640625 97.80796875 313.1640625 100.44796875 313.1640625 103.16796875 C260.09597604 106.17302907 207.23826273 105.37599179 154.1640625 103.16796875 C162.84937224 103.93643518 171.53495825 104.70168367 180.22089195 105.46306515 C184.25612082 105.81687726 188.29125411 106.17170884 192.32617188 106.52905273 C227.88074829 109.67631534 261.14148122 110.94666098 296.57128906 105.48925781 C302.51102358 104.59330128 308.15650099 103.94628751 314.1640625 104.16796875 C315.01087383 109.24883671 315.25444349 114.01625252 315.1640625 119.16796875 C309.10096092 120.8942685 303.45169306 121.5611667 297.1640625 121.79296875 C296.29394531 121.83164063 295.42382812 121.8703125 294.52734375 121.91015625 C292.40655764 122.00337762 290.28534065 122.08671011 288.1640625 122.16796875 C288.1640625 122.82796875 288.1640625 123.48796875 288.1640625 124.16796875 C289.4015625 124.00296875 290.6390625 123.83796875 291.9140625 123.66796875 C297.66413193 123.01684446 303.3851239 123.07996461 309.1640625 123.16796875 C309.1640625 124.48796875 309.1640625 125.80796875 309.1640625 127.16796875 C308.47183594 127.2659375 307.77960938 127.36390625 307.06640625 127.46484375 C294.86133652 129.3301772 283.10437227 132.84168164 271.28515625 136.3359375 C256.99375212 140.14578616 243.76918575 137.56404831 229.612854 134.74780273 C207.58657048 130.41667667 186.55591102 129.13736499 164.1640625 130.16796875 C165.36337402 130.20386108 165.36337402 130.20386108 166.58691406 130.24047852 C193.03076612 131.14713551 219.0891888 134.54397732 245.03808594 139.74389648 C261.40029545 143.00769505 280.88533245 137.35039071 296.36791992 132.07666016 C299.64513398 131.01162997 302.41229926 130.90199076 305.8515625 130.91796875 C306.96917969 130.9128125 308.08679688 130.90765625 309.23828125 130.90234375 C312.1640625 131.16796875 312.1640625 131.16796875 315.1640625 133.16796875 C315.98451238 137.26217451 315.53797062 141.15621737 314.1015625 145.04296875 C309.62482291 149.9529412 303.7670521 150.47913592 297.48803711 151.0402832 C288.97288129 151.63619908 288.97288129 151.63619908 281.4375 155.1484375 C280.23071041 156.68131704 279.07539285 158.2564105 277.98046875 159.87109375 C274.55526522 164.20231886 269.31287504 166.41737249 264.1640625 168.16796875 C260.796875 168.3203125 260.796875 168.3203125 258.1640625 168.16796875 C258.1640625 168.82796875 258.1640625 169.48796875 258.1640625 170.16796875 C259.14475708 170.13533936 259.14475708 170.13533936 260.14526367 170.10205078 C268.88313026 169.94618974 277.40072517 170.77120006 286.06567383 171.76708984 C288.48878417 172.04436728 290.91312194 172.3079773 293.33789062 172.5703125 C294.90113235 172.74528545 296.46428694 172.92103908 298.02734375 173.09765625 C298.74102615 173.1748288 299.45470856 173.25200134 300.1900177 173.33151245 C304.71403105 173.86213694 308.83398993 174.81731688 313.1640625 176.16796875 C313.1640625 176.82796875 313.1640625 177.48796875 313.1640625 178.16796875 C307.243052 179.02345302 301.50642761 179.31640676 295.52856445 179.31323242 C294.12566949 179.31819811 294.12566949 179.31819811 292.69443321 179.32326412 C289.59705805 179.33263775 286.4997321 179.33458285 283.40234375 179.3359375 C281.20107488 179.3398851 278.99980636 179.34402956 276.79853821 179.34835815 C270.90839146 179.3577026 265.01827333 179.35874402 259.12812042 179.35664749 C255.48008634 179.35546989 251.83205516 179.35599904 248.184021 179.35665894 C218.04144494 179.35548766 187.91815335 179.17188449 157.7890625 178.23046875 C157.08147923 178.20865414 156.37389595 178.18683952 155.64487076 178.16436386 C151.01808062 178.02084869 146.39177617 177.866161 141.765625 177.703125 C140.66309891 177.66452362 139.56057281 177.62592224 138.42463684 177.58615112 C131.96287096 177.33770958 125.53213158 176.90829142 119.08666992 176.38963318 C115.59163067 176.1245528 112.1170341 175.98 108.61328125 175.88671875 C107.33775391 175.84933594 106.06222656 175.81195313 104.74804688 175.7734375 C102.13087362 175.70259672 99.51368581 175.63229204 96.89648438 175.5625 C95.62740234 175.52511719 94.35832031 175.48773438 93.05078125 175.44921875 C91.91858154 175.41892578 90.78638184 175.38863281 89.61987305 175.35742188 C86.55630566 175.18947215 83.56774211 174.83799717 80.52836609 174.43554688 C75.29173352 173.84289527 70.02032683 173.60305933 64.76171875 173.27734375 C48.77667188 172.24728706 32.81878159 170.95811926 16.85794067 169.60850143 C14.55314264 169.41388009 12.24826479 169.22023135 9.94335938 169.02688599 C-19.50383224 166.55666709 -48.94572476 164.0249201 -78.38253403 161.43395615 C-86.68808038 160.70293508 -94.99428305 159.98076416 -103.30198479 159.27463245 C-109.26024765 158.76816927 -115.217863 158.25449328 -121.17529297 157.73831177 C-123.63484659 157.52668935 -126.09464366 157.31787554 -128.5546875 157.11203003 C-131.91084675 156.83083219 -135.26599919 156.53968246 -138.62109375 156.24609375 C-139.60606339 156.16611649 -140.59103302 156.08613922 -141.60585022 156.0037384 C-142.95736427 155.88248848 -142.95736427 155.88248848 -144.33618164 155.75878906 C-145.11401505 155.69250305 -145.89184845 155.62621704 -146.69325256 155.55792236 C-148.8359375 155.16796875 -148.8359375 155.16796875 -152.8359375 153.16796875 C-147.8859375 152.83796875 -142.9359375 152.50796875 -137.8359375 152.16796875 C-138.8878125 151.21921875 -139.9396875 150.27046875 -141.0234375 149.29296875 C-146.69603076 143.58599614 -149.48738596 137.33280898 -150.8984375 129.48046875 C-151.80663474 125.62883708 -152.52671059 124.41196149 -155.6875 121.91796875 C-158.68575903 120.17659114 -161.6801646 118.6015214 -164.8359375 117.16796875 C-163.8359375 115.16796875 -162.8359375 113.16796875 -161.8359375 111.16796875 C-161.43265386 104.35904034 -161.59570048 97.69182229 -162.8359375 90.98046875 C-164.60605866 81.10913614 -163.7892102 73.02275632 -161.5234375 63.29296875 C-161.20427368 61.91830444 -161.20427368 61.91830444 -160.87866211 60.51586914 C-159.5187661 55.01707117 -158.18496055 50.55444775 -154.12109375 46.42578125 C-150.96333406 44.68766395 -147.80053529 44.3898964 -144.2734375 44.04296875 C-138.98314033 43.48452734 -138.98314033 43.48452734 -133.8359375 42.16796875 C-132.35951253 42.07182113 -130.87919314 42.02987666 -129.3996582 42.02270508 C-128.05729851 42.0131353 -128.05729851 42.0131353 -126.68782043 42.00337219 C-125.72220688 42.00225937 -124.75659332 42.00114655 -123.76171875 42 C-122.76391891 41.9966716 -121.76611908 41.9933432 -120.73808289 41.98991394 C-118.62397726 41.9848483 -116.50986364 41.9825055 -114.39575195 41.98266602 C-111.17841174 41.98048903 -107.96141973 41.96235566 -104.74414062 41.94335938 C-102.68750117 41.94042339 -100.63086009 41.93843997 -98.57421875 41.9375 C-97.14098015 41.92672173 -97.14098015 41.92672173 -95.67878723 41.91572571 C-88.70378604 41.93929029 -82.33559581 42.67356669 -76.00390625 45.859375 C-75.02067383 46.31666992 -75.02067383 46.31666992 -74.01757812 46.78320312 C-72.7215432 47.39885145 -71.43425517 48.03338867 -70.15820312 48.68945312 C-65.21206614 50.93163842 -60.38653429 51.50558544 -55.01196289 51.75 C-53.79127798 51.80916391 -53.79127798 51.80916391 -52.54593277 51.86952305 C-40.4497914 52.38769716 -28.33743893 52.35648281 -16.2322464 52.39776421 C-11.62889638 52.41352008 -7.02560898 52.43746181 -2.42230225 52.46266174 C10.65299478 52.53307725 23.72832542 52.59342302 36.80371094 52.64477539 C44.05921298 52.67334197 51.31465026 52.70884847 58.57008386 52.75142914 C62.38512097 52.77348999 66.20010006 52.79214179 70.01519012 52.80187798 C87.15463773 52.84727972 104.10727416 53.33464562 121.1640625 55.16796875 C122.56208865 55.30496873 123.96025257 55.4405738 125.35858154 55.57444763 C150.99292216 58.14141636 175.02197463 65.63781839 199.1640625 74.16796875 C200.1540625 74.49796875 201.1440625 74.82796875 202.1640625 75.16796875 C168.36990267 57.67138666 134.03826778 48.73158642 95.95703125 49.11328125 C94.34848307 49.12457869 92.73993192 49.135461 91.13137817 49.14593506 C84.52394546 49.19494168 77.91803318 49.24919751 71.31225586 49.41113281 C67.20419608 49.50965055 63.09977247 49.54359044 58.99059486 49.53673935 C57.45113215 49.5459535 55.91159882 49.57826721 54.37318993 49.63595963 C47.74883162 49.87707299 41.81786434 49.9969208 36.6131897 45.33660889 C33.96531274 42.63292309 31.608006 39.75113835 29.34205055 36.72330856 C27.75019047 34.62151869 26.00009844 32.67956376 24.2265625 30.73046875 C22.35304687 28.58354534 20.59394156 26.42835239 18.8515625 24.16796875 C11.81543133 15.75220402 2.80093617 10.52521123 -7.8359375 8.16796875 C-32.36798573 6.06464153 -56.35754919 12.44973294 -77.8359375 24.16796875 C-76.68480469 23.64847656 -75.53367187 23.12898438 -74.34765625 22.59375 C-63.061906 17.60949944 -51.87557815 13.85197336 -39.8359375 11.16796875 C-38.64218506 10.8886853 -38.64218506 10.8886853 -37.42431641 10.60375977 C-31.34809306 9.26427473 -25.54952013 8.83252347 -19.3359375 8.85546875 C-18.02689453 8.83129883 -18.02689453 8.83129883 -16.69140625 8.80664062 C-3.87112225 8.79714412 6.74239568 13.58819458 15.8515625 22.54296875 C19.10890495 25.96004078 22.25950612 29.46352256 25.328125 33.05078125 C28.25568845 36.4268225 31.30741098 39.69053312 34.34375 42.96875 C36.1640625 45.16796875 36.1640625 45.16796875 37.1640625 48.16796875 C25.18452248 48.3310121 13.20525154 48.45496768 1.224823 48.53065395 C-4.33977787 48.56700174 -9.90361308 48.61621051 -15.46777344 48.69604492 C-20.84952183 48.77276839 -26.23053938 48.81409734 -31.61279297 48.83210945 C-33.65392545 48.84492559 -35.69502331 48.86994895 -37.73583984 48.90807915 C-51.19812207 49.14932969 -60.92773327 47.50637561 -72.8359375 41.16796875 C-76.31110879 40.00957832 -79.5086377 39.93995657 -83.12890625 39.8515625 C-84.18794914 39.82039085 -84.18794914 39.82039085 -85.26838684 39.78858948 C-87.51997301 39.72329384 -89.77167412 39.66430228 -92.0234375 39.60546875 C-93.5514441 39.5622645 -95.07943914 39.51864959 -96.60742188 39.47460938 C-100.35014312 39.36763301 -104.0929798 39.26630953 -107.8359375 39.16796875 C-104.81436156 36.0082293 -101.95985724 33.38903351 -98.203125 31.15234375 C-97.32479004 30.62793701 -96.44645508 30.10353027 -95.54150391 29.56323242 C-94.60741699 29.02029541 -93.67333008 28.4773584 -92.7109375 27.91796875 C-91.24213135 27.06199097 -91.24213135 27.06199097 -89.74365234 26.1887207 C-68.33460793 13.8730631 -45.71382767 4.26341558 -20.99389648 1.42993164 C-19.26437668 1.21997862 -17.54280556 0.94498242 -15.82592773 0.64892578 C-10.57507355 -0.1028982 -5.29395011 0.00541224 0 0 Z " fill="#201613" transform="translate(174.8359375,54.83203125)"/>
<path d="M0 0 C1.30904297 -0.02416992 1.30904297 -0.02416992 2.64453125 -0.04882812 C15.46481525 -0.05832463 26.07833318 4.73272583 35.1875 13.6875 C38.44484245 17.10457203 41.59544362 20.60805381 44.6640625 24.1953125 C47.59162595 27.57135375 50.64334848 30.83506437 53.6796875 34.11328125 C55.5 36.3125 55.5 36.3125 56.5 39.3125 C44.52045998 39.47554335 32.54118904 39.59949893 20.5607605 39.6751852 C14.99615963 39.71153299 9.43232442 39.76074176 3.86816406 39.84057617 C-1.51358433 39.91729964 -6.89460188 39.95862859 -12.27685547 39.9766407 C-14.31798795 39.98945684 -16.35908581 40.0144802 -18.39990234 40.0526104 C-31.86218457 40.29386094 -41.59179577 38.65090686 -53.5 32.3125 C-56.97517129 31.15410957 -60.1727002 31.08448782 -63.79296875 30.99609375 C-64.49899734 30.97531265 -65.20502594 30.95453156 -65.93244934 30.93312073 C-68.18403551 30.86782509 -70.43573662 30.80883353 -72.6875 30.75 C-74.2155066 30.70679575 -75.74350164 30.66318084 -77.27148438 30.61914062 C-81.01420562 30.51216426 -84.7570423 30.41084078 -88.5 30.3125 C-84.9733764 26.74548558 -81.72175087 23.96336683 -77.5 21.3125 C-76.84 21.6425 -76.18 21.9725 -75.5 22.3125 C-75.83 23.3025 -76.16 24.2925 -76.5 25.3125 C-75.58863281 24.76722656 -74.67726563 24.22195312 -73.73828125 23.66015625 C-56.91922681 13.78920719 -39.56999425 6.48732773 -20.5 2.3125 C-19.70706543 2.12776123 -18.91413086 1.94302246 -18.09716797 1.75268555 C-12.01707835 0.41168204 -6.21775744 -0.0229607 0 0 Z " fill="#1F1512" transform="translate(155.5,63.6875)"/>
<path d="M0 0 C7.36291375 3.57483887 11.54047641 9.65406213 14.67578125 17.03125 C16.9560554 23.86126545 17.8189935 29.83617448 17.75 37 C17.76160156 38.20462891 17.76160156 38.20462891 17.7734375 39.43359375 C17.73633646 50.87926334 13.95758379 62.17337554 6 70.625 C0.85233101 75.23435067 -4.36471512 75.98626327 -11.11328125 75.8046875 C-17.22917545 75.02393505 -21.12631176 70.19504227 -24.89453125 65.703125 C-33.11775285 54.41870412 -33.64256788 39.93028643 -32.5 26.5 C-30.79989513 17.25631603 -26.480334 8.50348392 -19.0703125 2.546875 C-12.41487882 -1.78219129 -7.53962322 -2.82259082 0 0 Z " fill="#F6F6F6" transform="translate(265.5,142.5)"/>
<path d="M0 0 C0.99257812 0.00580078 1.98515625 0.01160156 3.0078125 0.01757812 C4.53148437 0.07268555 4.53148437 0.07268555 6.0859375 0.12890625 C7.62121094 0.13180664 7.62121094 0.13180664 9.1875 0.13476562 C18.82194323 0.30412107 18.82194323 0.30412107 22.4609375 3.69140625 C26.38239533 10.17719406 25.94894776 16.59260261 25.90698242 23.91357422 C25.8984597 26.18548859 25.92729012 28.45489512 25.95898438 30.7265625 C25.96059649 32.183593 25.96001866 33.64062792 25.95703125 35.09765625 C25.95981079 37.06702148 25.95981079 37.06702148 25.96264648 39.07617188 C25.37945436 43.27856068 24.10880355 45.41586423 21.4609375 48.69140625 C16.47701559 52.16549299 11.81681922 52.14837038 5.9609375 52.06640625 C5.13207031 52.07800781 4.30320313 52.08960938 3.44921875 52.1015625 C-2.36450272 52.0738341 -6.81261766 51.33201099 -11.16748047 47.11425781 C-13.15987859 43.5947564 -13.04586603 40.14339184 -13.078125 36.19921875 C-13.09048187 35.37565887 -13.10283875 34.552099 -13.11557007 33.70358276 C-13.13511082 31.96375618 -13.14636393 30.22381944 -13.14990234 28.48388672 C-13.1639844 25.83111874 -13.23132061 23.18307009 -13.30078125 20.53125 C-13.31318152 18.83726045 -13.3224002 17.14324401 -13.328125 15.44921875 C-13.35484283 14.66153107 -13.38156067 13.87384338 -13.40908813 13.06228638 C-13.36810345 9.71601561 -13.19135279 7.54432614 -11.12216187 4.83869934 C-7.64073457 1.61996572 -4.86139153 -0.06694806 0 0 Z " fill="#231A17" transform="translate(190.5390625,248.30859375)"/>
<path d="M0 0 C0.84030762 -0.01023193 1.68061523 -0.02046387 2.54638672 -0.03100586 C16.06713506 0.16076829 26.34266224 6.2176979 35.875 15.4375 C37.6045621 17.30740842 39.26800413 19.21967867 40.91796875 21.16015625 C44.00996194 24.75822417 47.23754467 28.23183781 50.4453125 31.7265625 C52.875 34.4375 52.875 34.4375 55.09161377 37.56159973 C57.20093594 40.08309425 57.72067684 40.40231227 61.11737061 41.17680359 C62.34546448 41.1721962 63.57355835 41.16758881 64.83886719 41.1628418 C65.86237274 41.17155807 65.86237274 41.17155807 66.90655518 41.18045044 C69.16252753 41.19324761 71.41606904 41.16449334 73.671875 41.13671875 C75.26394612 41.14036063 76.85601285 41.14707511 78.44805908 41.1566925 C82.65389497 41.17578232 86.8589074 41.16175999 91.06469727 41.13818359 C98.51707756 41.09980956 105.96947849 41.10712472 113.421875 41.13671875 C114.22476267 41.13949451 115.02765034 41.14227028 115.85486794 41.14513016 C153.99580508 41.33473784 189.80186998 50.33893196 222.875 69.4375 C222.215 69.7675 221.555 70.0975 220.875 70.4375 C218.44580078 69.57763672 218.44580078 69.57763672 215.4453125 68.2421875 C190.09599413 57.32004587 161.47190844 50.74986636 133.93815708 48.60056305 C132.20134856 48.46329318 130.46529305 48.31654313 128.72944641 48.16760254 C114.57868476 47.10465632 100.38684009 47.23000602 86.20446563 47.16710854 C82.32698699 47.14869445 78.4495459 47.12435051 74.57209778 47.10046387 C64.73559236 47.04082715 54.89905198 46.98878133 45.0625 46.9375 C34.44652078 46.88211262 23.83055913 46.82527061 13.21463567 46.75995111 C9.37398136 46.73653205 5.53333608 46.71493843 1.69264793 46.69786072 C-25.79593314 46.57471909 -25.79593314 46.57471909 -37.28466797 46.03320312 C-38.01874784 46.00184517 -38.7528277 45.97048721 -39.50915241 45.93817902 C-45.39936469 45.60513494 -50.22294124 44.10780225 -55.4375 41.4375 C-56.97258381 40.70271511 -58.51029177 39.97338323 -60.05078125 39.25 C-60.69442627 38.92644531 -61.33807129 38.60289063 -62.0012207 38.26953125 C-66.70010171 36.42865454 -71.62339751 36.28755342 -76.6171875 36.12109375 C-78.41542969 36.05825195 -78.41542969 36.05825195 -80.25 35.99414062 C-81.4875 35.95482422 -82.725 35.91550781 -84 35.875 C-85.26070312 35.83181641 -86.52140625 35.78863281 -87.8203125 35.74414062 C-90.92177423 35.63840898 -94.02331145 35.53631429 -97.125 35.4375 C-97.125 35.1075 -97.125 34.7775 -97.125 34.4375 C-96.34125 34.31375 -95.5575 34.19 -94.75 34.0625 C-91.98442178 33.64632007 -91.98442178 33.64632007 -90.125 31.4375 C-85.74026737 31.12111681 -81.3529918 31.30706215 -76.96142578 31.43920898 C-74.79298331 31.49881841 -72.62613395 31.52284891 -70.45703125 31.54492188 C-60.10071749 31.76332722 -52.26172484 34.32975002 -43.03797913 39.00082397 C-38.63198672 40.8642904 -34.52012702 40.83845106 -29.79321289 40.77807617 C-28.88510864 40.77851425 -27.97700439 40.77895233 -27.04138184 40.77940369 C-24.05991612 40.7773249 -21.07902292 40.75403684 -18.09765625 40.73046875 C-16.02258105 40.72486956 -13.94750186 40.72060099 -11.87242126 40.71760559 C-6.42586204 40.70618229 -0.97954498 40.67673667 4.46691895 40.64349365 C10.03064702 40.61273856 15.59441444 40.59908864 21.15820312 40.58398438 C32.06390814 40.55186463 42.96943389 40.50069866 53.875 40.4375 C52.45283188 38.67911791 51.02779466 36.92305609 49.6015625 35.16796875 C48.80830566 34.18981201 48.01504883 33.21165527 47.19775391 32.20385742 C44.78650516 29.33210426 42.25082862 26.71171578 39.55078125 24.1171875 C37.72675177 22.28890621 36.09345485 20.35616495 34.4375 18.375 C27.37197126 10.25749253 17.75234984 4.19281964 6.79467773 3.26049805 C-6.38455935 2.8993245 -18.39044744 3.9875883 -31.125 7.4375 C-32.15238281 7.71464844 -33.17976563 7.99179688 -34.23828125 8.27734375 C-42.10232034 10.69105872 -49.60002377 14.15978657 -57.09326172 17.52807617 C-57.97256348 17.91713135 -58.85186523 18.30618652 -59.7578125 18.70703125 C-60.55074707 19.06385986 -61.34368164 19.42068848 -62.16064453 19.78833008 C-64.125 20.4375 -64.125 20.4375 -66.125 19.4375 C-45.26315529 8.35914109 -23.89408912 0.21946595 0 0 Z " fill="#EAE9E8" transform="translate(157.125,61.5625)"/>
<path d="M0 0 C6.35362235 3.08529809 8.6097735 8.80726492 11.0546875 15.09765625 C15.16099794 27.7050474 13.13697013 40.64143965 7.625 52.5 C5.5780568 56.27291602 3.90056589 58.96106783 0 61 C-4.60024693 62.28875192 -7.83516254 62.51521657 -12.25 60.5625 C-19.473369 53.83163343 -21.73530369 46.52144246 -22.25390625 36.8828125 C-22.68667933 24.60731583 -21.41377763 13.45172324 -13.5625 3.48828125 C-9.70058733 -0.19019057 -5.18442341 -1.04853507 0 0 Z " fill="#F4F3F3" transform="translate(47,139)"/>
<path d="M0 0 C9 0 9 0 11.265625 1.94921875 C13.49634276 5.87307139 15.68400054 9.79916165 17.75 13.8125 C19.85375 17.8653125 19.85375 17.8653125 22 22 C25.96 14.74 29.92 7.48 34 0 C42 0 42 0 43.97871399 1.21479797 C45.27619283 3.48278346 45.36203796 4.95204805 45.34057617 7.56323242 C45.34023628 8.94432442 45.34023628 8.94432442 45.33988953 10.35331726 C45.32440567 11.34402725 45.30892181 12.33473724 45.29296875 13.35546875 C45.28872391 14.37224197 45.28447906 15.3890152 45.28010559 16.43659973 C45.26329997 19.68716812 45.22564382 22.9371187 45.1875 26.1875 C45.17245562 28.38996501 45.15876679 30.59243973 45.14648438 32.79492188 C45.11339019 38.19685298 45.06159448 43.59832171 45 49 C41.37 49 37.74 49 34 49 C33.67 39.43 33.34 29.86 33 20 C30.36 24.95 27.72 29.9 25 35 C22.69 35 20.38 35 18 35 C15.69 30.71 13.38 26.42 11 22 C10.67 30.91 10.34 39.82 10 49 C6.7 49 3.4 49 0 49 C0 32.83 0 16.66 0 0 Z " fill="#221815" transform="translate(124,250)"/>
<path d="M0 0 C1.89837895 0.03136144 3.79635581 0.10990047 5.69140625 0.2265625 C6.71854736 0.26185059 7.74568848 0.29713867 8.80395508 0.33349609 C11.95827223 0.4597365 15.10369884 0.64851786 18.25390625 0.8515625 C19.12724609 0.89603516 20.00058594 0.94050781 20.90039062 0.98632812 C43.0650912 2.14923724 65.43885915 6.41923501 87.09423828 11.16186523 C107.70485281 15.66078241 128.23989615 16.96027862 149.25390625 17.8515625 C149.25390625 18.5115625 149.25390625 19.1715625 149.25390625 19.8515625 C145.83725861 19.88120506 142.42064504 19.8985721 139.00390625 19.9140625 C138.05515625 19.92244141 137.10640625 19.93082031 136.12890625 19.93945312 C131.35699429 19.95557445 126.66313844 19.83927409 121.91235352 19.37670898 C114.1942011 18.70988972 106.4750787 18.53482992 98.734375 18.3515625 C97.12860469 18.31108098 95.52284106 18.27033329 93.91708374 18.2293396 C89.64059998 18.12118424 85.36401662 18.017645 81.0873909 17.91527557 C78.43582715 17.85142816 75.78430064 17.78621189 73.13278198 17.72052002 C42.50872931 16.96209903 11.88358581 16.33627792 -18.74609375 15.8515625 C-16.83422545 13.83222231 -15.31693211 12.59966328 -12.87109375 11.1640625 C-9.74056115 8.84746837 -9.25942696 8.0582621 -7.703125 4.74609375 C-5.53293508 1.18211108 -4.17153063 0.27583346 0 0 Z " fill="#F5F5F5" transform="translate(88.74609375,192.1484375)"/>
<path d="M0 0 C2.97 0 5.94 0 9 0 C11.28055963 2.54923706 12.54300189 4.35690904 14.0625 7.3125 C14.89230921 8.7819436 15.72567396 10.24938477 16.5625 11.71484375 C17.16964844 12.80514893 17.16964844 12.80514893 17.7890625 13.91748047 C20.05883373 17.82093784 22.79512126 21.3528577 25.50390625 24.9609375 C27 27 27 27 28 29 C28.33 19.76 28.66 10.52 29 1 C31.97 1 34.94 1 38 1 C38 17.17 38 33.34 38 50 C30 50 30 50 28.10131836 48.61401367 C27.68503174 47.97181885 27.26874512 47.32962402 26.83984375 46.66796875 C26.1137793 45.59192383 26.1137793 45.59192383 25.37304688 44.49414062 C24.89931641 43.73294922 24.42558594 42.97175781 23.9375 42.1875 C23.45990234 41.46884766 22.98230469 40.75019531 22.49023438 40.00976562 C20.96186224 37.6937411 19.48183186 35.34607445 18 33 C15.69 29.37 13.38 25.74 11 22 C10.67 31.24 10.34 40.48 10 50 C6.7 50 3.4 50 0 50 C0 33.5 0 17 0 0 Z " fill="#231916" transform="translate(224,249)"/>
<path d="M0 0 C3.63 0 7.26 0 11 0 C11 6.27 11 12.54 11 19 C14.96 18.505 14.96 18.505 19 18 C21.31 12.06 23.62 6.12 26 0 C29.96 0 33.92 0 38 0 C37.06666423 2.54326447 36.12848392 5.08456588 35.1875 7.625 C34.92646484 8.33785156 34.66542969 9.05070312 34.39648438 9.78515625 C33.17514854 13.07220825 31.92043915 16.15326895 30.30078125 19.2734375 C28.71294269 22.09820705 28.71294269 22.09820705 29 26 C30.14678073 27.82135763 31.2998992 29.6391028 32.48828125 31.43359375 C40 44.18604651 40 44.18604651 40 49 C36.04 49 32.08 49 28 49 C27.05988736 47.14715664 26.12304408 45.29265432 25.1875 43.4375 C24.63191406 42.34695313 24.07632812 41.25640625 23.50390625 40.1328125 C22.32562345 37.6783117 21.4398905 35.39208715 20.625 32.8125 C20.08875 31.884375 19.5525 30.95625 19 30 C16.36 29.67 13.72 29.34 11 29 C11 35.6 11 42.2 11 49 C7.37 49 3.74 49 0 49 C0 32.83 0 16.66 0 0 Z " fill="#201614" transform="translate(310,250)"/>
<path d="M0 0 C21.00868803 1.07140077 42.00263584 2.2920956 62.99182129 3.69592285 C73.11309167 4.3725314 83.2332848 5.03356936 93.36328125 5.56640625 C94.17839676 5.60957977 94.99351227 5.6527533 95.83332825 5.69723511 C99.59953959 5.89531019 103.36590624 6.08631798 107.13305664 6.265625 C116.49632915 6.73321304 125.71909276 7.71995478 135 9 C133.50260417 11.734375 132.00520833 14.46875 130.5078125 17.203125 C129.2955686 19.45174321 128.13527655 21.71231065 127 24 C112.7934939 22.11882414 98.73932069 19.73691309 84.67129517 17.01318359 C69.22826289 14.02331486 53.77630796 11.10044071 38.27734375 8.4140625 C37.09601868 8.20889008 35.9146936 8.00371765 34.6975708 7.79232788 C29.00714688 6.80624615 23.3150687 5.83112205 17.62060547 4.86865234 C15.57645961 4.516821 13.53234951 4.16478188 11.48828125 3.8125 C10.55128891 3.65770172 9.61429657 3.50290344 8.64891052 3.34341431 C7.37117516 3.12121719 7.37117516 3.12121719 6.06762695 2.89453125 C5.32591751 2.76925049 4.58420807 2.64396973 3.82002258 2.51489258 C2 2 2 2 0 0 Z " fill="#F4F3F3" transform="translate(103,122)"/>
<path d="M0 0 C1.02480469 0.00644531 2.04960937 0.01289063 3.10546875 0.01953125 C4.16894531 0.03628906 5.23242188 0.05304688 6.328125 0.0703125 C7.94654297 0.08384766 7.94654297 0.08384766 9.59765625 0.09765625 C12.25790749 0.1211983 14.91804449 0.15706853 17.578125 0.1953125 C17.578125 3.8253125 17.578125 7.4553125 17.578125 11.1953125 C10.978125 11.1953125 4.378125 11.1953125 -2.421875 11.1953125 C-2.421875 14.1653125 -2.421875 17.1353125 -2.421875 20.1953125 C-1.55304688 20.16050781 -0.68421875 20.12570312 0.2109375 20.08984375 C12.14166339 19.8095918 12.14166339 19.8095918 16.578125 23.1953125 C21.04303766 29.12695976 20.42116682 36.14933912 19.578125 43.1953125 C18.23828921 46.18812577 17.21335636 47.1116412 14.578125 49.1953125 C11.40024959 50.2546043 9.15223557 50.30990189 5.81640625 50.29296875 C4.69814453 50.28974609 3.57988281 50.28652344 2.42773438 50.28320312 C1.26048828 50.27482422 0.09324219 50.26644531 -1.109375 50.2578125 C-2.28822266 50.25330078 -3.46707031 50.24878906 -4.68164062 50.24414062 C-7.59510289 50.23234523 -10.50846363 50.2158852 -13.421875 50.1953125 C-13.421875 46.8953125 -13.421875 43.5953125 -13.421875 40.1953125 C-3.026875 39.7003125 -3.026875 39.7003125 7.578125 39.1953125 C7.578125 36.5553125 7.578125 33.9153125 7.578125 31.1953125 C6.16660156 31.15664063 6.16660156 31.15664063 4.7265625 31.1171875 C-7.95343337 30.53963075 -7.95343337 30.53963075 -12.421875 26.1953125 C-15.85144886 20.93663258 -15.11012881 14.18798705 -14.421875 8.1953125 C-11.63501775 1.99982906 -6.42195354 -0.07135504 0 0 Z " fill="#251B18" transform="translate(366.421875,248.8046875)"/>
<path d="M0 0 C9.57 0 19.14 0 29 0 C29 2.97 29 5.94 29 9 C23.06 9 17.12 9 11 9 C11 12.3 11 15.6 11 19 C16.61 19 22.22 19 28 19 C28 22.3 28 25.6 28 29 C22.39 29 16.78 29 11 29 C11 32.3 11 35.6 11 39 C17.27 39 23.54 39 30 39 C30 42.3 30 45.6 30 49 C20.1 49 10.2 49 0 49 C0 32.83 0 16.66 0 0 Z " fill="#1E1411" transform="translate(272,250)"/>
<path d="M0 0 C2.36293907 -0.04642856 4.72589439 -0.09203978 7.08886719 -0.13671875 C8.17710785 -0.17671997 9.26534851 -0.21672119 10.38656616 -0.25793457 C17.81961454 -0.35802888 17.81961454 -0.35802888 21.02416992 2.6340332 C21.48637939 3.48312256 21.94858887 4.33221191 22.42480469 5.20703125 C26.04044791 8.33735323 29.87035214 10.6888804 34.42480469 12.20703125 C34.42480469 12.53703125 34.42480469 12.86703125 34.42480469 13.20703125 C32.71656336 13.23438743 31.00819064 13.25358631 29.29980469 13.26953125 C28.34847656 13.28113281 27.39714844 13.29273438 26.41699219 13.3046875 C23.42480469 13.20703125 23.42480469 13.20703125 20.95825195 12.74365234 C15.95363951 11.98360687 10.94993263 11.77807009 5.89746094 11.5234375 C4.20242432 11.43367645 4.20242432 11.43367645 2.47314453 11.34210205 C0.05867729 11.21443534 -2.35586633 11.08820624 -4.77047729 10.96328735 C-11.00785385 10.64034257 -17.24465151 10.30664005 -23.48144531 9.97265625 C-24.70427719 9.90734207 -25.92710907 9.84202789 -27.18699646 9.7747345 C-40.99066545 9.0322037 -54.78435244 8.15759423 -68.57519531 7.20703125 C-67.57519531 5.20703125 -66.57519531 3.20703125 -65.57519531 1.20703125 C-58.46202374 1.07380453 -51.34880705 0.94329926 -44.23552895 0.81587982 C-40.92929223 0.75657827 -37.62308342 0.69621902 -34.31689453 0.63427734 C-26.66265278 0.49118011 -19.0085385 0.3716278 -11.3536377 0.27001953 C-7.56798425 0.20691104 -3.78467734 0.10573442 0 0 Z " fill="#F3F3F2" transform="translate(374.5751953125,208.79296875)"/>
<path d="M0 0 C3.67547809 1.76967464 5.5140788 3.31971033 7.875 6.625 C9.80693282 12.42079845 9.87191571 17.71641125 7.6875 23.4375 C5.33988816 27.00239205 4.08494861 28.63835046 0 30 C-5.10046956 30.48162329 -9.50516956 30.82368208 -14.0625 28.3125 C-18.44199938 23.08535558 -18.48361146 17.69807925 -18.38671875 11.109375 C-17.81331723 6.49899514 -16.52208743 4.96175534 -13 2 C-8.73201787 -0.52039274 -4.85005514 -0.67361877 0 0 Z " fill="#0C0C0C" transform="translate(288,323)"/>
<path d="M0 0 C0.33 0 0.66 0 1 0 C2.10228696 4.40914783 2.07654536 8.48382401 2 13 C1.67 13 1.34 13 1 13 C1 10.69 1 8.38 1 6 C-0.3003418 6.176521 -1.60068359 6.35304199 -2.94042969 6.53491211 C-7.81550446 7.19587212 -12.6911178 7.852785 -17.56689453 8.50854492 C-19.66762699 8.79163949 -21.76821651 9.07579698 -23.86865234 9.36108398 C-46.65587262 12.45464147 -68.26416966 13.48222802 -91.1875 11.75 C-92.99373004 11.61730007 -94.79996385 11.4846515 -96.60620117 11.35205078 C-110.68435291 10.30485265 -124.75018281 9.11535119 -138.8125 7.875 C-139.79447357 7.78891479 -140.77644714 7.70282959 -141.78817749 7.61413574 C-144.57395428 7.36864123 -147.35930411 7.11883367 -150.14453125 6.8671875 C-151.38234848 6.75795456 -151.38234848 6.75795456 -152.64517212 6.64651489 C-156.49007095 6.29326813 -160.22792554 5.86389163 -164 5 C-164 4.67 -164 4.34 -164 4 C-158.7244542 4.12112918 -153.44899476 4.24544047 -148.17358398 4.37231445 C-146.39072547 4.41478998 -144.60784837 4.45649492 -142.82495117 4.49731445 C-133.7837976 4.70483314 -124.75069991 4.94830199 -115.71760559 5.3901825 C-102.74897962 6.02027324 -89.80508312 6.15346587 -76.82226562 6.13037109 C-73.26688332 6.12502538 -69.71162845 6.13034886 -66.15625 6.13671875 C-53.1237859 6.14014142 -40.12346357 5.91204024 -27.10223389 5.35488892 C-18.06312839 4.96857612 -9.04564309 4.89358067 0 5 C0 3.35 0 1.7 0 0 Z " fill="#EDECEC" transform="translate(488,153)"/>
<path d="M0 0 C4.62 0 9.24 0 14 0 C14 9.9 14 19.8 14 30 C9.05 30 4.1 30 -1 30 C-1.02291394 25.88822073 -1.04283951 21.77660342 -1.05493164 17.66479492 C-1.0599708 16.26504772 -1.06680216 14.8653058 -1.07543945 13.46557617 C-1.0875232 11.45754223 -1.09269807 9.44947043 -1.09765625 7.44140625 C-1.10289307 6.23170166 -1.10812988 5.02199707 -1.11352539 3.77563477 C-1 1 -1 1 0 0 Z " fill="#FAFAFA" transform="translate(190,259)"/>
<path d="M0 0 C2.97 0 5.94 0 9 0 C10.28556666 3.80731355 11.56721183 7.61592191 12.84521484 11.42578125 C13.28065756 12.72204323 13.71717592 14.01794438 14.15478516 15.31347656 C14.78309327 17.17418041 15.40723259 19.03629031 16.03125 20.8984375 C16.40830078 22.01911621 16.78535156 23.13979492 17.17382812 24.29443359 C18 27 18 27 18 29 C16.02 29 14.04 29 12 29 C11.34 26.69 10.68 24.38 10 22 C6.04 22 2.08 22 -2 22 C-2.33 24.31 -2.66 26.62 -3 29 C-4.98 29 -6.96 29 -9 29 C-8.41066394 24.94012934 -7.52036888 21.24802636 -6.15234375 17.3828125 C-5.79462891 16.36445313 -5.43691406 15.34609375 -5.06835938 14.296875 C-4.50858398 12.72679687 -4.50858398 12.72679687 -3.9375 11.125 C-3.37192383 9.52011719 -3.37192383 9.52011719 -2.79492188 7.8828125 C-1.86766315 5.2536232 -0.93590193 2.62612238 0 0 Z " fill="#0D0D0D" transform="translate(193,324)"/>
<path d="M0 0 C31.40388471 -0.89336149 61.1610387 -0.73001449 92.02520752 5.71226501 C103.78135059 8.15858069 114.61567094 9.46906852 126.375 6.0625 C131.63558372 4.56789424 136.57866268 3.57098342 142 3 C142.99 4.485 142.99 4.485 144 6 C140.17465527 7.03229398 136.33886629 8.01929998 132.5 9 C131.44167969 9.28617188 130.38335937 9.57234375 129.29296875 9.8671875 C113.88340037 13.74264781 99.61692854 11.82980508 84.25 9.125 C82.64213155 8.85165911 81.03405836 8.57951981 79.42578125 8.30859375 C76.45082264 7.8056821 73.47722289 7.29598426 70.50488281 6.77783203 C69.7932196 6.65590485 69.0815564 6.53397766 68.34832764 6.40835571 C66.64515936 6.11218814 64.94391532 5.80488569 63.24395752 5.49081421 C55.83444852 4.16685734 48.52880591 3.51964156 41.015625 3.1484375 C39.83401794 3.08467926 38.65241089 3.02092102 37.43499756 2.95523071 C33.7069677 2.75550711 29.97853202 2.56509338 26.25 2.375 C23.70309219 2.24020183 21.15621674 2.10479085 18.609375 1.96875 C12.40660608 1.63875408 6.20347781 1.31637448 0 1 C0 0.67 0 0.34 0 0 Z " fill="#E9E8E8" transform="translate(319,184)"/>
<path d="M0 0 C1.98 0 3.96 0 6 0 C6.33 7.92 6.66 15.84 7 24 C9.97 24 12.94 24 16 24 C18.08745045 20.86882433 18.27653996 19.93053776 18.4140625 16.33203125 C18.45273438 15.43935547 18.49140625 14.54667969 18.53125 13.62695312 C18.57765625 12.23379883 18.57765625 12.23379883 18.625 10.8125 C18.66367188 9.87212891 18.70234375 8.93175781 18.7421875 7.96289062 C18.83643187 5.6421229 18.92204025 3.32136252 19 1 C20.65 1 22.3 1 24 1 C24.08741124 4.56234428 24.14052896 8.12441108 24.1875 11.6875 C24.21263672 12.69490234 24.23777344 13.70230469 24.26367188 14.74023438 C24.35691643 24.1579348 24.35691643 24.1579348 21 28 C16.33834068 31.10777288 11.45528913 30.73620636 6 30 C2.51757609 27.47353559 1.34773178 26.04319535 0 22 C-0.08178114 20.29983156 -0.10749501 18.59663703 -0.09765625 16.89453125 C-0.09443359 15.91162109 -0.09121094 14.92871094 -0.08789062 13.91601562 C-0.07951172 12.89185547 -0.07113281 11.86769531 -0.0625 10.8125 C-0.05798828 9.77673828 -0.05347656 8.74097656 -0.04882812 7.67382812 C-0.0370401 5.11582734 -0.02058515 2.55794267 0 0 Z " fill="#0C0C0C" transform="translate(215,323)"/>
<path d="M0 0 C3 1.5 3 1.5 5 3 C4.67 4.32 4.34 5.64 4 7 C1 7 1 7 -1 6 C-2.99960012 5.960008 -5.00047242 5.95653201 -7 6 C-7.33 7.32 -7.66 8.64 -8 10 C-7.40832031 10.18175781 -6.81664062 10.36351562 -6.20703125 10.55078125 C-1.81510002 11.94788825 2.21742209 13.28127213 6 16 C7.3899408 18.7798816 7.18488204 20.9186326 7 24 C6.14280709 26.57157874 5.56412684 27.64757919 3.26171875 29.0859375 C-0.99317912 30.80553353 -5.50017492 30.57246295 -10 30 C-13.1875 28 -13.1875 28 -15 26 C-14.34 24.35 -13.68 22.7 -13 21 C-12.34 21 -11.68 21 -11 21 C-10.62875 21.495 -10.2575 21.99 -9.875 22.5 C-6.82907612 24.93673911 -3.81223906 24.18748717 0 24 C-0.33 22.35 -0.66 20.7 -1 19 C-2.01320313 18.76216797 -2.01320313 18.76216797 -3.046875 18.51953125 C-7.22900421 17.42565063 -10.33782608 16.55437816 -13.6875 13.75 C-15.50132791 9.94959867 -15.30386602 7.98403506 -14 4 C-9.46872262 -0.31023946 -5.94595559 -0.66066173 0 0 Z " fill="#0E0E0E" transform="translate(316,323)"/>
<path d="M0 0 C0.84030762 -0.01023193 1.68061523 -0.02046387 2.54638672 -0.03100586 C16.06713506 0.16076829 26.34266224 6.2176979 35.875 15.4375 C37.60413935 17.30695137 39.26666071 19.21830935 40.9140625 21.16015625 C44.02448075 24.77245474 47.29491674 28.23810349 50.54296875 31.7265625 C52.94757605 34.52186814 54.89550849 37.33402136 56.875 40.4375 C56.38 41.4275 56.38 41.4275 55.875 42.4375 C25.515 42.4375 -4.845 42.4375 -36.125 42.4375 C-36.125 42.1075 -36.125 41.7775 -36.125 41.4375 C-6.425 41.1075 23.275 40.7775 53.875 40.4375 C46.9661032 31.88361906 46.9661032 31.88361906 39.55078125 24.1171875 C37.72675177 22.28890621 36.09345485 20.35616495 34.4375 18.375 C27.37197126 10.25749253 17.75234984 4.19281964 6.79467773 3.26049805 C-6.38455935 2.8993245 -18.39044744 3.9875883 -31.125 7.4375 C-32.15238281 7.71464844 -33.17976563 7.99179688 -34.23828125 8.27734375 C-42.10232034 10.69105872 -49.60002377 14.15978657 -57.09326172 17.52807617 C-57.97256348 17.91713135 -58.85186523 18.30618652 -59.7578125 18.70703125 C-60.55074707 19.06385986 -61.34368164 19.42068848 -62.16064453 19.78833008 C-64.125 20.4375 -64.125 20.4375 -66.125 19.4375 C-45.26315529 8.35914109 -23.89408912 0.21946595 0 0 Z " fill="#D8D6D5" transform="translate(157.125,61.5625)"/>
<path d="M0 0 C3.45162111 1.96268652 5.58807155 3.81315949 8.1875 6.8125 C8.65929687 7.34359375 9.13109375 7.8746875 9.6171875 8.421875 C15.94024811 16.08817646 19.96701043 26.19415486 22.1875 35.8125 C21.73535156 38.01977539 21.73535156 38.01977539 21.1875 39.8125 C20.67960937 38.7503125 20.17171875 37.688125 19.6484375 36.59375 C14.02790688 24.98759447 7.92958622 12.64419704 -4.23046875 6.61328125 C-9.78539346 4.89049825 -15.96450316 4.70233632 -21.41796875 6.828125 C-23.63369374 8.06032047 -25.72238349 9.37927725 -27.8125 10.8125 C-29.3284375 11.7096875 -29.3284375 11.7096875 -30.875 12.625 C-31.514375 13.016875 -32.15375 13.40875 -32.8125 13.8125 C-30.0032461 7.07029065 -22.37892221 2.45649393 -15.9140625 -0.53125 C-10.44736385 -2.23832318 -5.38737539 -1.67803496 0 0 Z " fill="#F0F0F0" transform="translate(55.8125,114.1875)"/>
<path d="M0 0 C1.32 0 2.64 0 4 0 C5.36907416 2.57637588 6.72028455 5.15968104 8.0625 7.75 C8.45244141 8.47960937 8.84238281 9.20921875 9.24414062 9.9609375 C9.60830078 10.66992188 9.97246094 11.37890625 10.34765625 12.109375 C10.68804932 12.75874023 11.02844238 13.40810547 11.37915039 14.07714844 C12.14774619 16.45758908 11.89883677 17.68905713 11 20 C6.81951361 22.91705051 1.88298589 22.66027797 -3 22 C-5.40823788 20.90965608 -6.95504966 19.72206345 -9 18 C-7.45614871 13.85967154 -5.48971062 10.06446947 -3.375 6.1875 C-3.05015625 5.59001953 -2.7253125 4.99253906 -2.390625 4.37695312 C-1.59620849 2.91662865 -0.79844624 1.45812509 0 0 Z " fill="#251B18" transform="translate(256,192)"/>
<path d="M0 0 C3.90084789 0.59742715 6.87847386 1.74918302 10.3125 3.6875 C11.63701172 4.40486328 11.63701172 4.40486328 12.98828125 5.13671875 C15 7 15 7 15.57421875 9.71484375 C14.80582246 14.11090685 12.89588922 17.16245093 10.5 20.875 C10.07074219 21.56335938 9.64148438 22.25171875 9.19921875 22.9609375 C8.1447243 24.64812861 7.07396075 26.32513264 6 28 C1.46243723 24.21234256 0.91640175 18.58750508 0 13 C-0.22159292 8.65123889 -0.18939984 4.3491814 0 0 Z " fill="#261C19" transform="translate(236,174)"/>
<path d="M0 0 C3.0625 0.5625 3.0625 0.5625 5.9375 2.4375 C8.9185387 6.82138044 8.94948187 10.40955772 8.0625 15.5625 C6.5625 18.6875 6.5625 18.6875 4.0625 20.5625 C1.04828837 21.23569415 -0.76110153 21.01627121 -3.9375 20.5625 C-6.26582123 18.31355335 -6.88644266 16.90104237 -7.37109375 13.6875 C-7.37238281 12.65625 -7.37367188 11.625 -7.375 10.5625 C-7.39433594 9.53125 -7.41367187 8.5 -7.43359375 7.4375 C-6.64588578 2.87251524 -4.50242612 0.8621667 0 0 Z " fill="#F6F6F6" transform="translate(282.9375,327.4375)"/>
<path d="M0 0 C0.47674584 9.07141398 0.1706612 16.78044873 -4 25 C-4.66 25.66 -5.32 26.32 -6 27 C-15.19941331 13.60279616 -15.19941331 13.60279616 -15 7 C-12.68868934 5.83092416 -10.37604377 4.66464108 -8.0625 3.5 C-7.40314453 3.16613281 -6.74378906 2.83226562 -6.06445312 2.48828125 C-1.11328125 0 -1.11328125 0 0 0 Z " fill="#221916" transform="translate(280,175)"/>
<path d="M0 0 C4.3798869 1.2001385 6.85868053 2.36032267 9.75 5.875 C10.32234375 6.55304688 10.8946875 7.23109375 11.484375 7.9296875 C13.66262857 10.90513696 14.98321115 12.78560665 15.03515625 16.54296875 C13.47331395 20.25013405 11.07002843 20.79600755 7.4375 22.3125 C6.23996094 22.82425781 5.04242188 23.33601563 3.80859375 23.86328125 C2.88175781 24.23839844 1.95492188 24.61351562 1 25 C0 24 0 24 -0.11352539 21.68334961 C-0.10828857 20.68311768 -0.10305176 19.68288574 -0.09765625 18.65234375 C-0.09443359 17.57275391 -0.09121094 16.49316406 -0.08789062 15.38085938 C-0.07951172 14.24455078 -0.07113281 13.10824219 -0.0625 11.9375 C-0.05798828 10.79732422 -0.05347656 9.65714844 -0.04882812 8.48242188 C-0.03699747 5.65489649 -0.0205141 2.8274736 0 0 Z " fill="#211714" transform="translate(262,147)"/>
<path d="M0 0 C7.26 0 14.52 0 22 0 C22 1.65 22 3.3 22 5 C19.36 5 16.72 5 14 5 C14 12.92 14 20.84 14 29 C12.02 29 10.04 29 8 29 C8 20.75 8 12.5 8 4 C5.36 4 2.72 4 0 4 C0 2.68 0 1.36 0 0 Z " fill="#0A0A0A" transform="translate(244,324)"/>
<path d="M0 0 C0 7.92 0 15.84 0 24 C-0.99 24.33 -1.98 24.66 -3 25 C-5.91796875 23.34765625 -5.91796875 23.34765625 -9.1875 21.0625 C-9.74630859 20.67642578 -10.30511719 20.29035156 -10.88085938 19.89257812 C-12.26031198 18.93757247 -13.63102056 17.96995907 -15 17 C-14.10638637 10.95496665 -10.99076045 6.52631295 -6.33984375 2.59765625 C-2.57740214 0 -2.57740214 0 0 0 Z " fill="#271D1B" transform="translate(255,147)"/>
<path d="M0 0 C15.29117745 -0.82994132 30.21299361 1.66985713 45.3125 3.8125 C47.9210928 4.17347512 50.52981626 4.53350737 53.13867188 4.89257812 C66.78313524 6.78141324 80.40590242 8.77679085 94 11 C94 11.33 94 11.66 94 12 C87.79060595 12.13551711 81.85034761 11.61893388 75.6953125 10.828125 C74.70990479 10.70570435 73.72449707 10.58328369 72.70922852 10.45715332 C69.5138959 10.05933328 66.31944883 9.65485026 63.125 9.25 C58.70857319 8.69599174 54.29180181 8.14475961 49.875 7.59375 C48.77882355 7.45652527 47.68264709 7.31930054 46.55325317 7.17791748 C39.8107001 6.33736743 33.06508435 5.53681037 26.3125 4.78125 C25.51399628 4.69115662 24.71549255 4.60106323 23.89279175 4.50823975 C19.42756011 4.00497042 19.42756011 4.00497042 14.96051025 3.51818848 C12.97552432 3.30550107 10.99162679 3.08272664 9.0078125 2.859375 C7.91098145 2.74045898 6.81415039 2.62154297 5.68408203 2.49902344 C3 2 3 2 0 0 Z " fill="#C8C6C5" transform="translate(100,171)"/>
<path d="M0 0 C0.99 0.33 1.98 0.66 3 1 C3.88082622 3.71318044 4.57876229 6.28883517 5.1875 9.0625 C5.36474609 9.82111328 5.54199219 10.57972656 5.72460938 11.36132812 C6.16136967 13.23821697 6.58219156 15.1188016 7 17 C4.30404247 18.49904535 3.17463693 19.00727654 0 18.875 C-3.44552915 17.870054 -4.91852152 16.91406987 -7 14 C-6.58429161 10.43568548 -4.79892485 7.75996359 -2.9375 4.75 C-2.38964844 3.85796875 -1.84179688 2.9659375 -1.27734375 2.046875 C-0.64505859 1.03367188 -0.64505859 1.03367188 0 0 Z " fill="#29201D" transform="translate(40,179)"/>
<path d="M0 0 C3.84788585 1.5676572 6.37632897 3.79329096 9 7 C9.63258202 11.99189721 8.48986669 14.42410473 5.5 18.375 C4.52546875 19.68597656 4.52546875 19.68597656 3.53125 21.0234375 C3.0259375 21.67570312 2.520625 22.32796875 2 23 C-0.68453033 20.31546967 -0.97742618 18.54641921 -1.1328125 14.78515625 C-1.13023438 13.55667969 -1.12765625 12.32820312 -1.125 11.0625 C-1.12757812 9.83660156 -1.13015625 8.61070312 -1.1328125 7.34765625 C-1.02667535 4.67237569 -0.79917654 2.53072572 0 0 Z " fill="#2D2421" transform="translate(28,161)"/>
<path d="M0 0 C5.40664607 3.79926481 7.5343737 7.37556083 8.6875 13.875 C8.790625 14.90625 8.89375 15.9375 9 17 C2.5 20 2.5 20 -2 20 C-1.85834107 17.60385425 -1.71181159 15.20817103 -1.5625 12.8125 C-1.52318359 12.13896484 -1.48386719 11.46542969 -1.44335938 10.77148438 C-1.21072435 7.10300898 -0.82792989 3.58305794 0 0 Z " fill="#271D1B" transform="translate(48,144)"/>
<path d="M0 0 C-0.33 5.94 -0.66 11.88 -1 18 C-1.99 18.33 -2.98 18.66 -4 19 C-5.22989015 17.62312297 -6.43339578 16.22264167 -7.625 14.8125 C-8.29789063 14.03519531 -8.97078125 13.25789062 -9.6640625 12.45703125 C-11 10 -11 10 -10.39453125 7.375 C-8.00251315 3.30119886 -4.96313885 0 0 0 Z " fill="#251C19" transform="translate(43,143)"/>
<path d="M0 0 C0.43623812 6.68898454 -0.99068978 12.98137957 -4 19 C-4.66 19 -5.32 19 -6 19 C-6.67679658 17.274773 -7.34102 15.54461061 -8 13.8125 C-8.556875 12.36810547 -8.556875 12.36810547 -9.125 10.89453125 C-9.97636772 8.07817642 -10.17072647 5.91835561 -10 3 C-3.375 0 -3.375 0 0 0 Z " fill="#241A17" transform="translate(57,170)"/>
<path d="M0 0 C0.99 1.485 0.99 1.485 2 3 C-8.82680857 3.79421321 -19.58276759 4.16424217 -30.4375 4.125 C-31.15146942 4.12411377 -31.86543884 4.12322754 -32.6010437 4.12231445 C-43.0935862 4.10705193 -53.54005944 3.89428499 -64 3 C-64 2.67 -64 2.34 -64 2 C-52.60099683 1.04421609 -41.30729206 0.90469308 -29.875 1 C-26.60156601 1.02670634 -23.32818961 1.04657982 -20.0546875 1.0625 C-19.31821991 1.07079834 -18.58175232 1.07909668 -17.82296753 1.08764648 C-11.76131766 1.11658248 -6.05198932 -0.45675391 0 0 Z " fill="#E3E2E2" transform="translate(459,138)"/>
<path d="M0 0 C0.66 0.33 1.32 0.66 2 1 C1 4 1 4 -1.8359375 5.5 C-3.00382812 5.995 -4.17171875 6.49 -5.375 7 C-9.25858661 8.6533229 -12.14288487 9.91208726 -15 13 C-16.65769393 14.12841402 -18.34810627 15.20974931 -20.0625 16.25 C-20.94035156 16.79140625 -21.81820312 17.3328125 -22.72265625 17.890625 C-23.47417969 18.25671875 -24.22570312 18.6228125 -25 19 C-25.66 18.67 -26.32 18.34 -27 18 C-24.56889393 12.41746014 -20.33238 10.5646495 -15.1875 7.875 C-14.39279297 7.44574219 -13.59808594 7.01648438 -12.77929688 6.57421875 C-10.52878216 5.3642646 -8.26578865 4.18101957 -6 3 C-4.86175781 2.38382812 -3.72351563 1.76765625 -2.55078125 1.1328125 C-1.70902344 0.75898437 -0.86726563 0.38515625 0 0 Z " fill="#3A322F" transform="translate(104,71)"/>
<path d="M0 0 C0 0.33 0 0.66 0 1 C-0.94359375 1.17015625 -1.8871875 1.3403125 -2.859375 1.515625 C-16.37296034 4.06638207 -28.42468478 8.45144091 -40.96728516 14.09033203 C-41.84690918 14.47946777 -42.7265332 14.86860352 -43.6328125 15.26953125 C-44.42574707 15.62635986 -45.21868164 15.98318848 -46.03564453 16.35083008 C-48 17 -48 17 -50 16 C-41.52183805 11.49780366 -33.01960123 7.43524803 -24 4.125 C-23.22422607 3.83939209 -22.44845215 3.55378418 -21.64916992 3.25952148 C-14.27608283 0.61977426 -7.8325807 -1.63178765 0 0 Z " fill="#C8C6C5" transform="translate(141,65)"/>
<path d="M0 0 C0.66 0.66 1.32 1.32 2 2 C-3.94 3.32 -9.88 4.64 -16 6 C-16.33 5.34 -16.66 4.68 -17 4 C-16 2 -16 2 -13.41796875 1.11328125 C-12.35191406 0.84902344 -11.28585937 0.58476562 -10.1875 0.3125 C-9.12917969 0.04050781 -8.07085937 -0.23148438 -6.98046875 -0.51171875 C-4.1336937 -0.97809736 -2.63784671 -1.07292192 0 0 Z " fill="#DFDEDD" transform="translate(461,188)"/>
<path d="M0 0 C2.3129482 2.3129482 2.49580975 3.47904875 3.125 6.625 C3.29257813 7.44226563 3.46015625 8.25953125 3.6328125 9.1015625 C3.81457031 10.04128906 3.81457031 10.04128906 4 11 C1.69 11 -0.62 11 -3 11 C-2.53199289 6.94393835 -2.12046792 3.53411321 0 0 Z " fill="#E6E6E6" transform="translate(197,330)"/>
<path d="M0 0 C1.02577148 0.07831055 1.02577148 0.07831055 2.07226562 0.15820312 C3.73621169 0.28619898 5.3994473 0.42337719 7.0625 0.5625 C7.0625 2.5425 7.0625 4.5225 7.0625 6.5625 C4.4225 6.5625 1.7825 6.5625 -0.9375 6.5625 C-0.9375 6.2325 -0.9375 5.9025 -0.9375 5.5625 C1.3725 5.5625 3.6825 5.5625 6.0625 5.5625 C6.0625 4.2425 6.0625 2.9225 6.0625 1.5625 C-4.3325 2.0575 -4.3325 2.0575 -14.9375 2.5625 C-14.9375 1.9025 -14.9375 1.2425 -14.9375 0.5625 C-9.79660079 -0.33999856 -5.24023626 -0.41736395 0 0 Z " fill="#989392" transform="translate(477.9375,176.4375)"/>
<path d="M0 0 C0.33 0 0.66 0 1 0 C2.10228696 4.40914783 2.07654536 8.48382401 2 13 C1.67 13 1.34 13 1 13 C1 10.69 1 8.38 1 6 C0.04738281 6.144375 -0.90523438 6.28875 -1.88671875 6.4375 C-3.14097656 6.623125 -4.39523437 6.80875 -5.6875 7 C-7.54955078 7.2784375 -7.54955078 7.2784375 -9.44921875 7.5625 C-12.35886371 7.92100411 -15.07700022 8.08942256 -18 8 C-18 7.01 -18 6.02 -18 5 C-12.06 5 -6.12 5 0 5 C0 3.35 0 1.7 0 0 Z " fill="#B5B1B0" transform="translate(488,153)"/>
<path d="M0 0 C0.33 0 0.66 0 1 0 C2.23852969 7.14765932 1.85888741 12.31311081 -1 19 C-1.99 19 -2.98 19 -4 19 C-3.79503906 18.21496094 -3.59007812 17.42992187 -3.37890625 16.62109375 C-1.96045756 11.08982255 -0.64503363 5.67629598 0 0 Z " fill="#DDDBDB" transform="translate(57,170)"/>
<path d="M0 0 C5.68502535 1.64566523 10.76681636 4.29032784 16 7 C11.82356045 8.39214652 9.16562207 6.70664266 5.3125 5.0625 C4.61060547 4.77181641 3.90871094 4.48113281 3.18554688 4.18164062 C1.45349225 3.46289687 -0.27373781 2.73254669 -2 2 C-1.34 1.34 -0.68 0.68 0 0 Z " fill="#CFCCCC" transform="translate(442,122)"/>
<path d="M0 0 C0.66 0.33 1.32 0.66 2 1 C0.72648692 4.82053924 -0.62637525 5.23021375 -4.0625 7.1875 C-4.98160156 7.71730469 -5.90070312 8.24710938 -6.84765625 8.79296875 C-7.55792969 9.19128906 -8.26820312 9.58960937 -9 10 C-7.61811547 6.78956118 -6.07578097 4.95063635 -3.375 2.75 C-2.74335938 2.22921875 -2.11171875 1.7084375 -1.4609375 1.171875 C-0.73777344 0.59179688 -0.73777344 0.59179688 0 0 Z " fill="#CBC9C9" transform="translate(32,118)"/>
<path d="M0 0 C0.99 0.33 1.98 0.66 3 1 C4.3125 4.375 4.3125 4.375 5 8 C4.01 9.485 4.01 9.485 3 11 C2.01 7.37 1.02 3.74 0 0 Z " fill="#E1E0E0" transform="translate(53,148)"/>
<path d="M0 0 C0.99 0.33 1.98 0.66 3 1 C5.14255793 0.61067144 5.14255793 0.61067144 7 0 C4.63404067 2.61500768 2.13950774 4.38999603 -1 6 C-1.66 5.67 -2.32 5.34 -3 5 C-2.01 3.35 -1.02 1.7 0 0 Z " fill="#635C5A" transform="translate(80,84)"/>
<path d="M0 0 C0.33 0 0.66 0 1 0 C1.66 3.3 2.32 6.6 3 10 C2.01 10 1.02 10 0 10 C-0.74926071 6.33694766 -1.2380014 3.57644848 0 0 Z " fill="#413936" transform="translate(25,180)"/>
<path d="M0 0 C0.66 0.33 1.32 0.66 2 1 C-0.52788007 3.79872437 -2.20411134 5.45773019 -6 6 C-5 3 -5 3 -2.5625 1.25 C-1.716875 0.8375 -0.87125 0.425 0 0 Z " fill="#261C19" transform="translate(87,80)"/>
<path d="M0 0 C2.86724686 0.57344937 3.8614515 0.8614515 6 3 C3.69 3.33 1.38 3.66 -1 4 C-0.67 2.68 -0.34 1.36 0 0 Z " fill="#D9D8D7" transform="translate(457,187)"/>
</svg>
